/* XPM */
static const char * backgroundMovie_xpm[] = {
"128 128 47 1",
" 	c #8A9393",
".	c #929A9A",
"+	c #8F9797",
"@	c #939B9B",
"#	c #A4A9A9",
"$	c #A1A6A6",
"%	c #A1A7A7",
"&	c #A2A7A7",
"*	c #969D9D",
"=	c #8B9494",
"-	c #A3A8A8",
";	c #989F9F",
">	c #919999",
",	c #9FA5A5",
"'	c #9AA1A1",
")	c #9BA1A1",
"!	c #8E9696",
"~	c #A4A8A8",
"{	c #A2A8A8",
"]	c #9CA2A2",
"^	c #99A0A0",
"/	c #9AA0A0",
"(	c #949B9B",
"_	c #979E9E",
":	c #8B9393",
"<	c #8C9595",
"[	c #9DA3A3",
"}	c #909898",
"|	c #9FA4A4",
"1	c #A0A5A5",
"2	c #A3A9A9",
"3	c #8E9797",
"4	c #939A9A",
"5	c #8F9898",
"6	c #999F9F",
"7	c #8D9696",
"8	c #959C9C",
"9	c #9EA4A4",
"0	c #8C9494",
"a	c #8D9595",
"b	c #9BA2A2",
"c	c #A0A6A6",
"d	c #9DA2A2",
"e	c #929999",
"f	c #949C9C",
"g	c #959D9D",
"h	c #9CA3A3",
"                                                                                                                                ",
"                                                                                                                                ",
"                                                                                                                                ",
"                                                                                                                                ",
"                                                                                                                                ",
"                                                                                                                                ",
"                                                                                                                                ",
"                                                                                                                                ",
"                       .+                                                                                                       ",
"                      @#$+                                                                                                      ",
"                     @###$+                                                                                                     ",
"                    @#####%+                                                                                                    ",
"                   @#######%+                                                                                                   ",
"                  @#########%+                                                                                                  ",
"                 @##########&*=                                                                                                 ",
"                @##########-;>==                                                                                                ",
"               @###########&,');>!                                                                                              ",
"              @#############~##-{)@                                                                                             ",
"             @###################-$*                                                                                            ",
"            @############-&########-*                                                                                           ",
"           @############]^*/########{(                                                                                          ",
"          @############_+: <*########[}                                                                                         ",
"         @############*=    +|#######%.:                                                                                        ",
"        @############*      +1#######2_=                                                                                        ",
"       3############*      :4-########;                                                                                         ",
"        *##########*       5&########-*=                                                                                        ",
"         *########*       +&#########-6.>37=                                                                                    ",
"          *######*       +$###########%#&,,8>                                                                                   ",
"           *####*       +$#################-98                                                                                  ",
"            *##*       +$####################{*                                                                                 ",
"             **       +$###########%$,########-8                                                                                ",
"                     +$###########](!>_########,.                                                                               ",
"                    +$###########'<=  =^#######-_0                                                                              ",
"                   +$###########/      *########17                                                                              ",
"                  +&###########/      <_-#######9!                                                                              ",
"                  8###########/       7,########$+                                                                              ",
"                   *#########/       =9########-,3                                                                              ",
"                    *#######/       =9##########;                                                                               ",
"                     *#####/       =9##########9>                                                                               ",
"                      *###/       =9##########$;=                                                                               ",
"                       *#/       =9##########{]=                                                                                ",
"                        >       =9###########[=                                                                                 ",
"                               =9###########9=                                                                                  ",
"                              =9###########9=       a}}..}<<                                                                    ",
"                             =9###########9=     <!_b-$&-c[/>7                                                                  ",
"                            =9###########9=     !_9#########&6.                                                                 ",
"                             *##########9=     39%###########-,8                                                                ",
"                              *########9=     +c-##############$*                                                               ",
"                               *######9=     3$#################2*                                                              ",
"                                *####9=     7[-##################{8                                                             ",
"                                 *##9=     0*1##########&---######|.                                                            ",
"                                  *9=      <d##########9'@(*$#####&;a                                                           ",
"                                   =       8-#########b}<  =+$#####&}                                                           ",
"                                          =;#########'==    <_&####-/0                                                          ",
"                                          79########'        *-#####[<                                                          ",
"                                          a1#######]<        _######1}                                                          ",
"                                          +9######c.=       +[######->                                                          ",
"                                          79######97       =(&######&>   =                                                      ",
"                                          <[######_0       }$#######1}  +[+                                                     ",
"                                          =_-####2/=     :+$########,a  .%%+                                                    ",
"                                           4-#####[<    <>$########-'< =[-#%+                                                   ",
"                                           =/######/!<<>8%#########-@  e,###%+                                                  ",
"                                            @,######[[)1-##########)!  ;#####%+                                                 ",
"                                            =^&#######--##########1f  },######%+                                                ",
"                                             =]2#################-;   (-#######,7                                               ",
"                                              =[-###############-'   7,########]=                                               ",
"                                               =]&#############&^    .c#######13                                                ",
"                                                =;9#########-#9*    :/-######&;a                                                ",
"                                                 =.^$-#####&&_e     >,#######$}                                                 ",
"                                                   =>('b])/@}=      g########(       =                                          ",
"                                                     ===7<:=       +1#######'!     a4[+                                         ",
"                                                                  :.$######$f     46#-$+                                        ",
"                                                                  =]#######/   =a;,####$+           =                           ",
"                                                                  .1######93  78[#######$+         =9h                          ",
"                                                                 :_######%_<a}9c#########%+       =9##h                         ",
"                                                                 }c-#####13>_&2###########%+     =9####h                        ",
"                                                                 (&#####-8*,-##############,7   =9######h                       ",
"                                                                a|######{,#############--&/8=    '#######h                      ",
"                                                               :4c####################$c*.:       '#######h                     ",
"                                                               =^###################$)(!=    =]+   '######9=                    ",
"                                                               +1################c%*. =     =[#%+   '####9=                     ",
"                                                                *##############1]@+:       =[###%+   '##9=                      ",
"                                                                 *##########&c_.==        =[#####%+   '9=                       ",
"                                                                  *#######19@}           =[#######%+   =                        ",
"                                                                   *##22,;><            =[#########%+                           ",
"                                                                    *c9(}              =[###########]                           ",
"                                                                     +!               =[###########9=                           ",
"                                                                                     =[###########9=                            ",
"                                                                                    =9###########9=                             ",
"                                                                                   =[###########9=                              ",
"                                                                                  =9###########9=                               ",
"                                                                                 =9###########9=                                ",
"                                                                                =9###########9=       =a=!7==                   ",
"                                                                               =9###########9=     =<(_][9]'8+<                 ",
"                                                                              =9###########9=     7(]%######&&*>                ",
"                                                                              @###########9=     3]c##########-9f               ",
"                                                                               *#########9=     +,&############2%*              ",
"                                                                                *#######9=     +c2##############-2*             ",
"                                                                                 *#####9=     !,#################--*            ",
"                                                                                  *###9=     a'&##########-#-#####-$(           ",
"                                                                                   *#9=     =.,##########9]_'%#####-[}          ",
"                                                                                    @=      :'##########,+<=a}c#####-g0         ",
"                                                                                            >1###########8   =>%#####c!         ",
"                                                                                            (-############f   7h#####&(=        ",
"                                                                                           =;-#############f   ^######^         ",
"                                                                                            '#######b]######f ![######b<        ",
"                                                                                           :/######c.=b######8.&######[a        ",
"                                                                                           ='-#####c!  b######&#######'         ",
"                                                                                           =f-#####,7   b############-^=        ",
"                                                                                            e&#####1}    b###########%>=        ",
"                                                                                            =^######'=    b#########-c5         ",
"                                                                                             .9######'+<<  b#########*=         ",
"                                                                                             =;&######,[/8  b#######]}          ",
"                                                                                              =]-########%(  b#####c8           ",
"                                                                                               =[########{9.  b###{;            ",
"                                                                                                =[-#######-)}  b##/             ",
"                                                                                                 =]&#######{_!  b)              ",
"                                                                                                  =^,#######&(<                 ",
"                                                                                                   =()~-#####%}                 ",
"                                                                                                    :af^1,,c,^f                 ",
"                                                                                                       <7+}!70                  ",
"                                                                                                                                ",
"                                                                                                                                ",
"                                                                                                                                ",
"                                                                                                                                ",
"                                                                                                                                ",
"                                                                                                                                ",
"                                                                                                                                "};
