/* XPM */
static char *draggear[] = {
/* columns rows colors chars-per-pixel */
"32 32 257 2",
"   c #000101",
".  c #050A0A",
"X  c #0A0C0B",
"o  c #0A1313",
"O  c #0E1B1B",
"+  c #0D1817",
"@  c #121411",
"#  c #121D1B",
"$  c #1C1C1B",
"%  c #161914",
"&  c #1F211B",
"*  c #122424",
"=  c #142828",
"-  c #182D2D",
";  c #1D302D",
":  c #1A3333",
">  c #1E3A39",
",  c #2E2E2D",
"<  c #29342C",
"1  c #203A39",
"2  c #323231",
"3  c #3A3A32",
"4  c #383E37",
"5  c #2F4139",
"6  c #3E483B",
"7  c #234545",
"8  c #2A4743",
"9  c #2D5757",
"0  c #2D5858",
"q  c #3B4D43",
"w  c #3A544D",
"e  c #335D5B",
"r  c #355A56",
"t  c #3B615D",
"y  c #356767",
"u  c #356868",
"i  c #396360",
"p  c #396E6D",
"a  c #3F716F",
"s  c #3C7575",
"d  c #454739",
"f  c #4E513D",
"g  c #444444",
"h  c #494943",
"j  c #494948",
"k  c #5A5A46",
"l  c #58584E",
"z  c #5C5C53",
"x  c #585858",
"c  c #565651",
"v  c #46584B",
"b  c #46635C",
"n  c #4C726C",
"m  c #437C7A",
"M  c #517872",
"N  c #56776A",
"B  c #6A6C55",
"V  c #676759",
"C  c #6D745B",
"Z  c #72795F",
"A  c #646461",
"S  c #6D6D6D",
"D  c #777769",
"F  c #797D61",
"G  c #7D7D72",
"H  c #60A829",
"J  c #60A72A",
"K  c #6CA13A",
"L  c #63BB24",
"P  c #47807D",
"I  c #5C8379",
"U  c #658777",
"Y  c #708E7A",
"T  c #6CAB5A",
"R  c #73A646",
"E  c #71AB5E",
"W  c #71B147",
"Q  c #7FBF77",
"!  c #68C722",
"~  c #68CA23",
"^  c #68CC29",
"/  c #67C824",
"(  c #6FCE30",
")  c #74CF36",
"_  c #7EC85E",
"`  c #7ECF71",
"'  c #468584",
"]  c #528A85",
"[  c #5B8D83",
"{  c #59938C",
"}  c #5F9B92",
"|  c #638B83",
" . c #65978C",
".. c #64A299",
"X. c #62A097",
"o. c #6DBE86",
"O. c #75A295",
"+. c #74A99E",
"@. c #72B684",
"#. c #7FBC8F",
"$. c #7ABB9A",
"%. c #77ABA1",
"&. c #77B3A6",
"*. c #70C68D",
"=. c #7CC29D",
"-. c #73C999",
";. c #7DD298",
":. c #76C5A4",
">. c #7CC8A0",
",. c #71DCDC",
"<. c #84856D",
"1. c #8D8D7A",
"2. c #83837D",
"3. c #969B7B",
"4. c #82B34E",
"5. c #8BB457",
"6. c #8BB577",
"7. c #97AD70",
"8. c #9DB573",
"9. c #83C24A",
"0. c #89C351",
"q. c #85D652",
"w. c #91D25D",
"e. c #8AC56E",
"r. c #81CE71",
"t. c #86C878",
"y. c #8ED669",
"u. c #96D465",
"i. c #A7D978",
"p. c #848482",
"a. c #898986",
"s. c #8D8D89",
"d. c #959580",
"f. c #94948F",
"g. c #9B9C86",
"h. c #979794",
"j. c #87A287",
"k. c #81B09F",
"l. c #89BC91",
"z. c #98B797",
"x. c #84BCAF",
"c. c #A9AB8D",
"v. c #A6B78A",
"b. c #A5BA96",
"n. c #B8BA95",
"m. c #A9A9A4",
"M. c #ADADA9",
"N. c #B7B8A7",
"B. c #BBBBB1",
"V. c #83C392",
"C. c #82C39D",
"Z. c #88C292",
"A. c #80D497",
"S. c #9DC68E",
"D. c #98CD98",
"F. c #99DB8E",
"G. c #90D88C",
"H. c #96DA91",
"J. c #9CDA92",
"K. c #9BDA9D",
"L. c #95D496",
"P. c #8CD78A",
"I. c #8BCCAD",
"U. c #85C6A7",
"Y. c #8CC3B5",
"T. c #8BCAB3",
"R. c #80D5A5",
"E. c #88D2A2",
"W. c #8ED0B9",
"Q. c #93C5B1",
"!. c #92CBBA",
"~. c #94CCB2",
"^. c #99D5A2",
"/. c #9FD7AF",
"(. c #9FDCA3",
"). c #95D9A1",
"_. c #94D3B5",
"`. c #95D2B8",
"'. c #95DDB5",
"]. c #99D3B6",
"[. c #99D4BB",
"{. c #9EDAB7",
"}. c #AFC495",
"|. c #A0D389",
" X c #A0D797",
".X c #A3DB99",
"XX c #A4D998",
"oX c #B5C689",
"OX c #B9C999",
"+X c #BCDE9B",
"@X c #BADD97",
"#X c #ABC587",
"$X c #A2CEB3",
"%X c #A2DDAB",
"&X c #A8DBA6",
"*X c #A3DEB2",
"=X c #A8D7B6",
"-X c #B9CAA2",
";X c #B3D4A4",
":X c #B8DDB5",
">X c #AEE194",
",X c #BAE69D",
"<X c #B1E097",
"1X c #A7E0B6",
"2X c #A9E0BF",
"3X c #B6E5A5",
"4X c #B2E3BB",
"5X c #BBE7B0",
"6X c #95D5C3",
"7X c #99D9C2",
"8X c #99DAC8",
"9X c #9EE0D3",
"0X c #A2DBC0",
"qX c #AAE0C3",
"wX c #ADE1CB",
"eX c #ACE2D0",
"rX c #A2E1D3",
"tX c #B4E3C0",
"yX c #B0E2D0",
"uX c #C4CC9C",
"iX c #C0C39D",
"pX c #C0D88B",
"aX c #C7D09E",
"sX c #C0C1B7",
"dX c #C5C5BD",
"fX c #C9CABC",
"gX c #C9D5A6",
"hX c #C2DEB0",
"jX c #D6DBB4",
"kX c #C8E3A7",
"lX c #CAE1B1",
"zX c #C6E7B6",
"xX c #D4E7BB",
"cX c #DBECB9",
"vX c #D8E7B9",
"bX c #D5F0BF",
"nX c #D7D7C6",
"mX c #D6D8C3",
"MX c #C4E9C2",
"NX c #CDEDCA",
"BX c #CBECC2",
"VX c #D7EFC6",
"CX c #D9EDC4",
"ZX c #D3EFD0",
"AX c #D5F0C4",
"SX c #DEF2D3",
"DX c #DDF3D9",
"FX c #E2EBC6",
"GX c #E8EDD5",
"HX c #EBEEDB",
"JX c #E4E7D5",
"KX c #EBF4DB",
"LX c #E3F3D8",
"PX c #EDF3E1",
"IX c #F0F4E2",
"UX c gray100",
"YX c None",
/* pixels */
"YXYXYXYXYXYXYXYXYXYXYXYXYXYXYXYXYXYXYXYXYXYXYXYXYXYXYXYXYXYXYXYX",
"YXYXYXYXYXYXYXYXYXYXYXYXYXYXYXYXYXYXYXYXYXYXYXYXYXYXYXYXYXYXYXYX",
"YXYXYXYXYXYXYXYXYXYXYXYXyXyXyXyXyXeXyXyXyXYXYXYXYXYXYXYXYXYXYXYX",
"YXYXYXYXYXYXYXYXYXYXwXwX4XMXZXDXDXZXMX4XqXyXyXYXYXYXYXYXYXYXYXYX",
"YXYXYXYXYXYXYXYXyXwX4XNXDXDXHXHXIXPXLXDXNX4XqXyXYXYXYXYXYXYXYXYX",
"YXYXYXYXYXYXYXyX1XMXLXSXVXNXHXmXdXPXAXAXSXLXBX*XyXyXYXYXYXYXYXYX",
"YXYXYXYXYXYXyX%XzXPXHXLXCXCXHXM.m.JXVXAXKXHXKXBX%XyXYXYXYXYXYXYX",
"YXYXYXYXYXeX(.3XGXfXm.fXKXJXsXh.h.B.HXHXB.m.mXSX5X(.yXYXYXYXYXYX",
"YXYXYXYXyX*XF.zXxXB.p.a.h.f.p.2.2.p.f.f.a.s.nXhXzX>X%XwXYXYXYXYX",
"YXYXYXyXqXJ.>X,XgXxXG S S S S S S S S S S 2.FX+X,X3XJ.2XyXYXYXYX",
"YXYXYXyX&X<XvXvXFXf.A x x x x x x x x x x A N.cXvXCXXX.XyXYXYXYX",
"YXYXYXqXXXjX1.<.G c g g g g g j j g g g g h z G D 3.vX XqXyXYXYX",
"YXYXeX%X|.n.z 3 2 2 , 2 2 d V 3.1.z d , , , 2 2 3 V jX|.%XyXYXYX",
"YXYXeX(.e.OXc.3 $ $ $ $ 3 g.uX7.7.gX<., $ $ $ $ d iX#Xe.K.wXYXYX",
"YXYXyXJ.e.W oXf X X X % B oXK H J R uXf X X X % <.8.W _ H.yXYXYX",
"YXYXwXH.y.w.kXd .     & n.R L ~ L L 5.3.@     X k pXw.y.H.wXYXYX",
"YXYXwX X@XaXB % .     & OX9.~ ~ ! ! 0.c.%     . & Z uXaXJ.wXYXYX",
"YXYXyXXXgXf o . . . X # 3.u.( ^ ( ) i.Z + . X . X % d gXXXwXYXYX",
"YXYXyXD.OXY 6 < # + + O d lXu.q.q.i.uX4 + o + & < 6 C hXD.yXYXYX",
"YXYXyX^.6.8.OXc.5 = * = ; v b.zXhXj.q = * * = q }.}.v.6.D.wX,.YX",
"YXYXwX*Xt.T E ;Xb : : : > > 8 w w 5 > : : : > U z.T T ` *XeX,.YX",
"YXYX,.eXL.` t.4Xb 7 7 7 7 7 7 7 7 7 7 7 7 7 7 N :X` ` H.0X,.,.YX",
"YXYX,.eX1XG.;XY r r y e 0 0 0 0 0 0 0 0 0 i e t j.K.P./.eX,.YXYX",
"YXYXYX,.wX^.D.z.I x.Q.[ p u u u u u u n } Q.O.U $XD.).eX,.,.YXYX",
"YXYXYX,.9X0XZ.z.$Xx.V.[.] m P ] ] m s { {.$.U.].l.Z.0XrX,.YXYXYX",
"YXYXYXp p x.].=.@.o.*.7X{ ' &.8X6X..P } `.*.@.@.=.{.6X' p YXYXYX",
"YXYXYX  o = U [.E.A.;._.+...8X:.:.6X..&._.;.;.E.].O.> =   YXYXYX",
"YXYXYX    . o w x.'.E.U.Q.].U.-.-.T.[.I.=.E.'.T.b o . .   YXYXYX",
"YXYXYX      . o * M !.I.$.$.:.;.>.>.$.$.I.!.| & o .       YXYXYX",
"YXYXYX          . O - n %.x.W.W.W.W.x.%.M : O o .         YXYXYX",
"YXYXYX        .   o O = - > 7 7 7 7 > : = O o             YXYXYX",
"YXYXYXYX          . . + O = = : : = = * O . .         YXYXYXYXYX"
};
