/* XPM */
static char * draggear[] = {
"16 16 8 1",
" 	c None",
".	c #000000",
"+	c #001F44",
"@	c #FFFFFF",
"#	c #B7BEC7",
"$	c #B9C0C9",
"%	c #B8BFC8",
"&	c #CFCFD1",
"                ",
" .............. ",
" .++++++++++++. ",
" .++@@@@@@@@++. ",
" .++++++++++++. ",
" .###$%#######. ",
" .############. ",
" .############. ",
" .############. ",
" .############. ",
" .############. ",
" .############. ",
" .############. ",
"  .&&&&&&&&&&.  ",
"   ..........   ",
"                "};
