/* XPM */
static const char * Pause_xpm[] = {
"32 32 73 1",
" 	c None",
".	c #6B5D09",
"+	c #C6BD19",
"@	c #BDB416",
"#	c #BBB115",
"$	c #C2B817",
"%	c #C8C018",
"&	c #CAC31A",
"*	c #D1CA1C",
"=	c #B0A312",
"-	c #4D3E06",
";	c #D7CE1D",
">	c #F2E224",
",	c #F6E726",
"'	c #F7E827",
")	c #F7E626",
"!	c #F7E727",
"~	c #FAEE2E",
"{	c #AC9F11",
"]	c #201802",
"^	c #9C850F",
"/	c #D6B316",
"(	c #EEC619",
"_	c #EDC318",
":	c #EFCB1A",
"<	c #F5E123",
"[	c #978C0F",
"}	c #281F03",
"|	c #8E6E0C",
"1	c #D3A313",
"2	c #EAB515",
"3	c #EDC418",
"4	c #F5DE22",
"5	c #8D7F0D",
"6	c #000000",
"7	c #906F0C",
"8	c #D4A413",
"9	c #F5DF23",
"0	c #8A7D0D",
"a	c #85670B",
"b	c #CC9E12",
"c	c #897B0D",
"d	c #CA9C12",
"e	c #887B0D",
"f	c #EDC118",
"g	c #F5DC22",
"h	c #8A7C0D",
"i	c #EDC018",
"j	c #8C7F0E",
"k	c #EEC319",
"l	c #F6E023",
"m	c #F5DD22",
"n	c #8C800E",
"o	c #8C810E",
"p	c #8F6E0C",
"q	c #8B6C0C",
"r	c #D5A513",
"s	c #8A6B0C",
"t	c #83660B",
"u	c #BF9310",
"v	c #CE9F12",
"w	c #D4A412",
"x	c #D6B015",
"y	c #E5D11E",
"z	c #685009",
"A	c #785D0A",
"B	c #7C600A",
"C	c #84660B",
"D	c #8A710C",
"E	c #B6A614",
"F	c #010100",
"G	c #110D00",
"H	c #2C2202",
"                                ",
"                                ",
"                                ",
"                                ",
"                                ",
"                                ",
"                                ",
"     .+@#$%&*=   .+@#$%&*=      ",
"     -;>,')!~{   -;>,')!~{      ",
"     ]^/((_:<[   ]^/((_:<[      ",
"     }|1222345   }|1222345      ",
"     678222390   678222390      ",
"     6ab22234c   6ab22234c      ",
"     6ad22234e   6ad22234e      ",
"     6ad222fgh   6ad222fgh      ",
"     6ad222igj   6ad222igj      ",
"     6ad222klj   6ad222klj      ",
"     6ad222imn   6ad222imn      ",
"     6ab222kgo   6ab222kgo      ",
"     6p8222ign   6p8222ign      ",
"     6qr222igj   6qr222igj      ",
"     6sr222imj   6sr222imj      ",
"     6tuvw8xyn   6tuvw8xyn      ",
"     6zABCaDEo   6zABCaDEo      ",
"     666666FGH   666666FGH      ",
"                                ",
"                                ",
"                                ",
"                                ",
"                                ",
"                                ",
"                                "};
