/* XPM */
static const char * Play_xpm[] = {
"32 32 115 2",
"  	c None",
". 	c #342804",
"+ 	c #3C2E05",
"@ 	c #544006",
"# 	c #988712",
"$ 	c #D6C91E",
"% 	c #785C0A",
"& 	c #382C05",
"* 	c #161101",
"= 	c #8E720D",
"- 	c #C8AA16",
"; 	c #F4DA1F",
"> 	c #F5DE20",
", 	c #94720D",
"' 	c #685009",
") 	c #000000",
"! 	c #91700D",
"~ 	c #C39811",
"{ 	c #EEC419",
"] 	c #F5DD20",
"^ 	c #F7E422",
"/ 	c #81640B",
"( 	c #473706",
"_ 	c #C39711",
": 	c #EAB615",
"< 	c #EDBF18",
"[ 	c #EFC61A",
"} 	c #F1CF1C",
"| 	c #F7E322",
"1 	c #584407",
"2 	c #251D03",
"3 	c #EAB515",
"4 	c #EAB815",
"5 	c #F0CB1B",
"6 	c #F8E823",
"7 	c #F6DF21",
"8 	c #5C4708",
"9 	c #97750D",
"0 	c #F1D01C",
"a 	c #85660B",
"b 	c #483806",
"c 	c #A07B0D",
"d 	c #EEC619",
"e 	c #EFC91A",
"f 	c #F3D81E",
"g 	c #F8E623",
"h 	c #F7E522",
"i 	c #98750D",
"j 	c #7D610B",
"k 	c #A37F0D",
"l 	c #CA9C12",
"m 	c #ECBC17",
"n 	c #F4D81F",
"o 	c #F6E021",
"p 	c #96740D",
"q 	c #7F620B",
"r 	c #EBBB16",
"s 	c #EFC81A",
"t 	c #EFCC1B",
"u 	c #F3E120",
"v 	c #EFDC1F",
"w 	c #A17C0E",
"x 	c #322704",
"y 	c #E7B214",
"z 	c #D9A813",
"A 	c #D1A412",
"B 	c #CDAC14",
"C 	c #C4A313",
"D 	c #B89C13",
"E 	c #8F710B",
"F 	c #95730C",
"G 	c #E8B314",
"H 	c #DFAD14",
"I 	c #D8A713",
"J 	c #CFA012",
"K 	c #BD9211",
"L 	c #B78D10",
"M 	c #9B780C",
"N 	c #705609",
"O 	c #D3A313",
"P 	c #C29611",
"Q 	c #BD9210",
"R 	c #B0880F",
"S 	c #A8810D",
"T 	c #906F0B",
"U 	c #D3A312",
"V 	c #BA9010",
"W 	c #A7810F",
"X 	c #A27D0D",
"Y 	c #84650A",
"Z 	c #92700C",
"` 	c #D0A112",
" .	c #B68D10",
"..	c #B1890F",
"+.	c #735908",
"@.	c #DEAC14",
"#.	c #D5A513",
"$.	c #B78E10",
"%.	c #8D6C0B",
"&.	c #87680B",
"*.	c #8C6C0A",
"=.	c #BB9110",
"-.	c #D6A613",
";.	c #B48C10",
">.	c #9C790D",
",.	c #8C6C0B",
"'.	c #695108",
").	c #80620A",
"!.	c #AC840E",
"~.	c #B88E10",
"{.	c #A37E0E",
"].	c #8F6F0C",
"^.	c #83650B",
"/.	c #99760C",
"(.	c #6B5208",
"                                                                ",
"                                                                ",
"                                                                ",
"                                                                ",
"                                                                ",
"              . +                                               ",
"            @ # $ % &                                           ",
"            * = - ; > , '                                       ",
"            ) ! ~ { ] ^ ^ / (                                   ",
"            ) ! _ : < [ } | | 1 2                               ",
"            ) ! _ 3 3 3 4 5 > 6 7 / 8                           ",
"            ) 9 _ 3 3 3 3 : < 0 | ^ ^ a b                       ",
"            ) c _ 3 3 3 3 3 3 4 d e f g h i j                   ",
"            ) k l 3 3 3 3 3 3 3 3 3 m 5 n 6 o p q               ",
"            ) k l 3 3 3 3 3 3 3 3 3 3 3 r s t u v w x           ",
"            ) k l 3 3 3 3 3 3 3 3 3 3 3 y z A B C D E )         ",
"            ) F l 3 3 3 3 3 3 3 3 G H I J K L M N ) )           ",
"            ) F l 3 3 3 3 3 3 G H O P Q R S T ) )               ",
"            ) F l 3 3 3 3 y z U P V W X Y ) )                   ",
"            ) Z _ 3 3 3 y ` Q  ...T +.) )                       ",
"            ) Z _ G @.#.J $.i %.&.) )                           ",
"            ) *.=.-._ ;.>.,.'.) )                               ",
"            ) ).!.~.{.].'.) )                                   ",
"            ) '.^./.N ) )                                       ",
"            ) (.(.) )                                           ",
"              ) )                                               ",
"                                                                ",
"                                                                ",
"                                                                ",
"                                                                ",
"                                                                ",
"                                                                "};
