<?xml version="1.0" encoding="utf-8"?>
<!-- Generator: Adobe Illustrator 10, SVG Export Plug-In . SVG Version: 3.0.0 Build 76)  -->
<!DOCTYPE svg PUBLIC "-//W3C//DTD SVG 1.0//EN"    "http://www.w3.org/TR/2001/REC-SVG-20010904/DTD/svg10.dtd" [
	<!ENTITY ns_flows "http://ns.adobe.com/Flows/1.0/">
	<!ENTITY ns_extend "http://ns.adobe.com/Extensibility/1.0/">
	<!ENTITY ns_ai "http://ns.adobe.com/AdobeIllustrator/10.0/">
	<!ENTITY ns_graphs "http://ns.adobe.com/Graphs/1.0/">
	<!ENTITY ns_vars "http://ns.adobe.com/Variables/1.0/">
	<!ENTITY ns_imrep "http://ns.adobe.com/ImageReplacement/1.0/">
	<!ENTITY ns_sfw "http://ns.adobe.com/SaveForWeb/1.0/">
	<!ENTITY ns_custom "http://ns.adobe.com/GenericCustomNamespace/1.0/">
	<!ENTITY ns_adobe_xpath "http://ns.adobe.com/XPath/1.0/">
	<!ENTITY ns_svg "http://www.w3.org/2000/svg">
	<!ENTITY ns_xlink "http://www.w3.org/1999/xlink">
]>
<svg 
	 xmlns:x="&ns_extend;" xmlns:i="&ns_ai;" xmlns:graph="&ns_graphs;" i:viewOrigin="-524.6162 469.5723" i:rulerOrigin="523.6152 659.3203" i:pageBounds="-523.6152 254.6797 1193.3848 -659.3203"
	 xmlns="&ns_svg;" xmlns:xlink="&ns_xlink;" xmlns:a="http://ns.adobe.com/AdobeSVGViewerExtensions/3.0/"
	 width="1663.964" height="1543.46" viewBox="0 0 1663.964 1543.46"
	 overflow="visible" enable-background="new 0 0 1663.964 1543.46" xml:space="preserve">
	<metadata>
		<variableSets  xmlns="&ns_vars;">
			<variableSet  varSetName="binding1" locked="none">
				<variables></variables>
				<v:sampleDataSets  xmlns="&ns_custom;" xmlns:v="&ns_vars;"></v:sampleDataSets>
			</variableSet>
		</variableSets>
		<sfw  xmlns="&ns_sfw;">
			<slices></slices>
			<sliceSourceBounds  y="-8394.32" x="-7856.616" width="16383" height="16383" bottomLeftOrigin="true"></sliceSourceBounds>
		</sfw>
	</metadata>
	<g id="Layer_1" i:layer="yes" i:dimmedPercent="50" i:rgbTrio="#4F008000FFFF">
		<path i:knockout="Off" fill-rule="evenodd" clip-rule="evenodd" fill="#B6B6B6" d="M553.001,607.893
			c0,0,18.747,3.602,21.764,4.281s5.205,1.329,6.225,3.393c1.432-1.114,3.583,0.406,3.583,0.406l0.191,2.036l-7.225,0.636
			l1.077,7.286l8.466-3.786l0.443,2.625l-2.838,1.648l1.463,4.688l7.587-2.655l1.211,4.101l-5.929,2.708l2.068,4.81l6.193-2.41
			c0.884,0.189,1.891,1.921-0.499,3.269c-1.544,0.871-0.752,3.029-1.506,4.861l-2.638,0.204l-36.894,31.215l-8.46,49.617
			l26.913,17.015l-29.054,52.138l-29.477,35.879l7.725,7.213l73.014-83.487l5.347,4.524l4.042-3.93l98.542-19.137L715,713.893
			l-1.659-0.053l2.382-3.983l2.814-1.068l4.652,1.312l-7.84,21.789l11.58-5.426l11.102-26.905l4.371,7.974l13.553-6.231
			l-4.851-9.729l4.485-1.305l3.952,4.77c0,0,47.944-20.777,54.124-22.898c6.182-2.12,38.478-12.964,38.478-12.964l4.001,3.611
			l-24.572,18.057l2.618,3.565l16.525-11.065l4.468,5.655l-3.501,4.236l2.367,2.979l12.125-11.79l11.087,12.832l-19.331,18.517
			l3.363,5.62l-3.717,2.779l-3.122-4.741l-41.995,24.159l10.847,11.957c0,0-0.134,3.186-1.842,4.289
			c-1.708,1.105-4.232,1.895-4.232,1.895l-5.919-10.634l-4.823,2.743l3.614,6.207l-1.166,1.414l1.5,3.819l-1.131,0.542
			l-6.915-13.277l-10.763,5.744l5.798,13.532l-2.826,1.355l-5.81-13.238l-26.238,11.617l3.037,6.771L763,770.562l-8.972-10.442
			l-17.944,11.889l13.312,12.616l-7.795,7.577l-17.397-14.197c0,0-12.479,0.465-13.597,0.72c-1.119,0.253-0.866,0.842,1.008,2.353
			c1.875,1.512,20.593,17.202,20.593,17.202l-1.24,3.15l-5.917,2.419l-2.316-4.136l-9.032,4.058l-3.139,2.218l-14.657-13.529
			l-10.242-0.042l-3.176,3.088l14.91,14.116l-6.1,6.765l-14.116-13.221l-4.343,4.5l18.032,18.856l-9.128,6.375l-3.025-7.058
			c0,0-12.699,5.679-16.065,6.73c-3.368,1.051-18.456,4.331-18.456,4.331l-4.114-14.055l8.706-2.909l-3.715-16.944l-19.347,5.754
			l6.126,25.434l-5.111,3.024l-7.773-25.775l-6.396,0.663l-23.14,16.94l3.35,5.91c0,0-0.065,8.12-1.318,11.559
			c-1.253,3.44-2.432,5.142-1.664,6.617c0.769,1.475,0.407,3.492-0.735,4.328c-1.143,0.833-2.598,2.524-2.598,2.524
			s2.114,2.39,0.394,3.784c-1.72,1.395-6.831,4.421-6.831,4.421l-2.741-0.671l-5.522,6.201l2.785,6.183l-4.44,6.817l-1.634-0.633
			l-3.691,2.201l-2.33-3.848l-9.909,5.189l-5.371-3.945l-2.887,2.809l2.041,4.127l-4.367,5.077c0,0-3.847-0.704-5.217-1.037
			c-1.371-0.335-4.09,5.087-4.09,5.087s0.455,2.334-0.724,4.037c-1.18,1.701-12.427,12.359-12.427,12.359l-10.483,18.804l-3.72,9.45
			c0,0,2.317,4.137-0.245,5.792c-2.561,1.658-3.175,3.091-4.135-0.422l-2.704-1.538l-0.497,5.205c0,0,1.741,4.696,3.424,4.171
			c1.684-0.524,0.708,2.923,2.103,2.68c1.394-0.246-2.083,3.412-1.639,6.037c0.443,2.625-0.908,8.382,2.288,11.388
			c3.195,3.004,2.785,6.182,12.21,5.906c3.854-0.113,3.785,2.154,3.785,2.154s1.456-1.695,2.574-1.948
			c3.355-0.761,2.716,1.25,5.469,1.628c2.752,0.379,12.023-2.801,12.023-2.801s5.444,2.209,7.453,0.531
			c0.786-0.652,14.15-0.7,16.988-2.348c2.838-1.648,1.48-2.273,3.705-2.49c2.224-0.219,1.984-1.096,4.22-1.602
			c2.237-0.51,6.937-0.356,8.369-1.471c1.432-1.115,5.437-4.174,7.108-4.411c1.671-0.233,6.009,1.937,8.559,0.569
			c2.549-1.368,2.875-2.518,4.797-2.165c1.924,0.353,8.031-0.029,8.031-0.029s9.958-6.347,13.638-8.258
			c3.68-1.912,9.056-4.638,10.174-4.893c1.118-0.253,10.53-0.237,10.53-0.237l4.798-2.166l10.527,6.433l1.732-1.683l-5.839-5.99
			l4.018-3.352l5-0.418l1.021,2.062l36.188-4.625l-0.468-2.045l18.058-1.445l13.275,13.483l4.81-2.454l-3.96-11.15l12.902-3.932
			l-2.004-4.997l-15.149,4.729l-3.627-5.918l3.403-1.92l6.336,0.785l11.267-4.566c0,0,6.334,0.787,5.566-0.689
			c-0.768-1.475-9.891-21.494-9.891-21.494l3.692-2.199l19.499,36.598l13.613-7.68l-3.626-5.917l0.386-2.6l6.254-3.857l11.975-1.642
			l-0.634-4.66l1.972-0.808L796.61,919l6.433-1.53l1.548,2.661l-5.307,7.66l2.932,2.704l-9.207,14.784l5.455,9.854l16.495-24.805
			l-5.48-21.062l7.624-3.522l1.801,3.25l16.679-8.161l-1.475-4.399c0,0,7.851-2.355,10.412-4.013
			c2.562-1.655,9.995-7.217,9.995-7.217l4.24,4.489l3.139-2.217l1.561,2.369l-4.33,4.209l-1.333-1.203l-6.954,7.316l4.72,6.244
			l7.17-5.858l3.699,4.18l-8.951,8.703l1.31,1.78l-14.411,13.458l5.553,7.533l-34.743,36c-2.886,3.754-3.145,7.71-0.777,11.866
			l32.038,54.41l127.461-48.363l1.711,4.014l14.158-6.107l4.979,13.214l-54.738,23.065l11.41,31.406l72.111-29.276l36.855-46.663
			c0,0,16.193-13.254,18.344-13.514c3.119-0.377,4.521-2.174,4.929,1.32c0.405,3.494-3.917,45.599-3.917,45.599l2.292,4.717
			l2.927-1.238c-4.313,18.728-9.074,37.288-11.49,56.117l-5.504,2.964l593.096,463.721l1.5-1538.959L560.606,1L553.001,607.893z"/>
		<path i:knockout="Off" fill-rule="evenodd" clip-rule="evenodd" fill="none" d="M1153.929,514.659
			c-9.059,31.033-12.541,61.084-18.283,92.225c-8.395,41.495-6.738,80.998-18.452,122.384c-0.048,1.16-4.472,1.015-4.522,2.174
			c-12.069,76.184,8.125,148.774-9.573,227.095c-2.653,10.354-10.786,19.374-12.331,29.765"/>
		<path i:knockout="Off" fill-rule="evenodd" clip-rule="evenodd" fill="none" stroke="#202038" d="M1090.767,988.301
			c1.545-10.391,9.678-19.41,12.331-29.765c17.698-78.32-2.496-150.911,9.573-227.095c0.051-1.159,4.475-1.014,4.522-2.174
			c11.714-41.386,10.058-80.889,18.452-122.384c5.742-31.14,9.225-61.192,18.283-92.225"/>
		
			<path i:knockout="Off" fill-rule="evenodd" clip-rule="evenodd" fill="#FFFDEF" stroke="#202038" stroke-width="0.25" stroke-miterlimit="3.864" d="
			M1121.935,552.488l-6.908-14.727l-16.454,9.327l6.604,14.139L1121.935,552.488z"/>
		
			<path i:knockout="Off" fill-rule="evenodd" clip-rule="evenodd" fill="#FFFDEF" stroke="#F49AB8" stroke-width="0.25" stroke-linejoin="round" stroke-miterlimit="3.864" d="
			M808.044,897.329l6.53,15.874L796.61,919l-5.953-16.434L808.044,897.329z"/>
		
			<path i:knockout="Off" fill-rule="evenodd" clip-rule="evenodd" fill="#FFFDEF" stroke="#F49AB8" stroke-width="0.25" stroke-miterlimit="3.864" d="
			M967.072,651.882c0,0-14.516,9.391-15.769,12.831c-1.252,3.44,3.731,9.983,3.731,9.983l16.684-14.832L967.072,651.882z"/>
		
			<path i:knockout="Off" fill-rule="evenodd" clip-rule="evenodd" fill="#FFFDEF" stroke="#202038" stroke-width="0.25" stroke-miterlimit="3.864" d="
			M1115.626,864.965c5.553-0.402,23.59-7.937,23.59-7.937l-13.447-22.481l-16.059,1.789c0.371,10.071,0.733,20.16,0.921,30.283
			C1112.202,865.754,1113.925,865.087,1115.626,864.965z"/>
		
			<path i:knockout="Off" fill-rule="evenodd" clip-rule="evenodd" stroke="#F49AB8" stroke-width="0.25" stroke-miterlimit="3.864" d="
			M1086.296,825.143l-77.908,48.523l12.343,22.445l-11.401,7.751l3.356,12.291l-12.532,8.294
			c10.361,3.818,41.636,8.552,51.234,6.306c13.758-3.221,52.593-19.739,56.803-12.846c0.194-0.045,0.547,0.301,0.994,0.9
			c1.064-12.037,1.5-23.972,1.562-35.841l-2.393-3.155l-4.082-8.254c0,0,2.795-2.979,6.358-4.938
			c-0.188-10.123-0.55-20.212-0.921-30.283l-16.211,1.805L1086.296,825.143z"/>
		
			<path i:knockout="Off" fill-rule="evenodd" clip-rule="evenodd" fill="#FFFDEF" stroke="#202038" stroke-width="0.25" stroke-miterlimit="3.864" d="
			M1109.185,918.808c1.961,2.632,5.789,10.194,6.773,11.823c0.277,0.008,20.283-11.562,20.156-11.818
			c-1.021-2.063-9.873-15.405-9.873-15.405l-15.494-20.44C1110.685,894.836,1110.249,906.771,1109.185,918.808z"/>
		
			<path i:knockout="Off" fill-rule="evenodd" clip-rule="evenodd" fill="#FFFDEF" stroke="#F49AB8" stroke-width="0.25" stroke-linejoin="round" stroke-miterlimit="3.864" d="
			M548.453,986.652l-1.036-14.828l19.561-4.296l0.926,17.435L548.453,986.652z"/>
		<path i:knockout="Off" fill-rule="evenodd" clip-rule="evenodd" fill="#8A8A8A" d="M1077.62,636.907l-63.691,39.7l-51.869,48.206
			l32.688,52.112l18.81-12.733l4.685,7.113c1.61,1.212,84.943-70.917,84.943-70.917L1077.62,636.907z"/>
		
			<path i:knockout="Off" fill-rule="evenodd" clip-rule="evenodd" fill="#FFFDEF" stroke="#E4D6E7" stroke-width="0.5" stroke-miterlimit="3.864" d="
			M675.077,912.156l10.368-9.525l4.253,4.199l1.204-2.283l3.147,4.165l5.196-5.052l2.35,9.938l4.904,1.898l-10.271,7.209
			l-4.903-1.898l-3.035,6.281l-3.122-4.743l-9.694,6.647l-5.285-5.972l5.627-2.14L675.077,912.156z"/>
		<path i:knockout="Off" fill="#FFFDEF" stroke="#202038" stroke-width="0.5" d="M888.337,805.375l17.008-11.563l6.924,11.297
			l-17.005,11.566L888.337,805.375"/>
		<path i:knockout="Off" fill-rule="evenodd" clip-rule="evenodd" fill="#9F8967" d="M607.409,639.047
			c-1.585-1.792,9.856,2.641,9.856,2.641l24.487-16.029l21.859-6.252l10.188,7.873l30.151,33.464l-21.291,19.034l1.219,10.48
			l-84.028-3.308c0,0-8.066-18.825-4.504-24.511C598.91,656.756,608.995,640.839,607.409,639.047z"/>
		
			<path i:knockout="Off" fill-rule="evenodd" clip-rule="evenodd" fill="#E5EFC6" stroke="#F49AB8" stroke-width="0.25" stroke-linejoin="round" stroke-miterlimit="3.864" d="
			M945.669,496.297c-0.563,1.548,0.287,2.505,1.881,3.069C946.743,496.773,946.04,495.278,945.669,496.297z"/>
		
			<path i:knockout="Off" fill-rule="evenodd" clip-rule="evenodd" fill="#E5EFC6" stroke="#F49AB8" stroke-width="0.25" stroke-linejoin="round" stroke-miterlimit="3.864" d="
			M1154.622,504.82"/>
		
			<path i:knockout="Off" fill-rule="evenodd" clip-rule="evenodd" fill="#E5EFC6" stroke="#F49AB8" stroke-width="0.25" stroke-linejoin="round" stroke-miterlimit="3.864" d="
			M1125.526,511.997"/>
		
			<path i:knockout="Off" fill-rule="evenodd" clip-rule="evenodd" fill="#E5EFC6" stroke="#F49AB8" stroke-width="0.25" stroke-linejoin="round" stroke-miterlimit="3.864" d="
			M965.447,513.182"/>
		
			<path i:knockout="Off" fill-rule="evenodd" clip-rule="evenodd" fill="#9F6100" stroke="#F49AB8" stroke-width="0.25" stroke-miterlimit="3.864" d="
			M700.659,929.23c0,0-28.42,7.022-45.979,13.59c-17.167,6.42-42.906,19.491-42.906,19.491l3.326,6.488
			c-4.742,7.39-18.879,7.799-22.136,6.243l-17.45-26.09c0,0,24.076-12.852,28.094-16.203c4.017-3.35,36.201-24.639,36.201-24.639
			s41.261-8.113,50.017-10.849L700.659,929.23z"/>
		
			<path i:knockout="Off" fill-rule="evenodd" clip-rule="evenodd" fill="#6BBF34" stroke="#F49AB8" stroke-width="0.25" stroke-miterlimit="3.864" d="
			M627.512,635.06l-2.001,8.056l3.724,3.601l4.545-2.752l3.701,4.181l9.572-3.75l-4.659-7.692l5.147-3.894l-2.569-4.725
			l-5.677,3.297l-2.041-4.127L627.512,635.06z"/>
		
			<path i:knockout="Off" fill-rule="evenodd" clip-rule="evenodd" fill="#6BBF34" stroke="#F49AB8" stroke-width="0.25" stroke-miterlimit="3.864" d="
			M506.936,942.224l-1.638,4.159c0,0,2.317,4.137-0.245,5.792c-2.561,1.658-3.175,3.091-4.135-0.422l-2.704-1.538l-0.497,5.205
			c0,0,1.741,4.696,3.424,4.171c1.684-0.524,0.708,2.923,2.103,2.68c1.394-0.246-2.083,3.412-1.639,6.037
			c0.443,2.625-0.908,8.382,2.288,11.388c3.195,3.004,2.785,6.182,12.21,5.906c3.854-0.113,3.785,2.154,3.785,2.154
			s1.456-1.695,2.574-1.948c3.355-0.761,2.716,1.25,5.469,1.628c2.752,0.379,12.023-2.801,12.023-2.801s5.444,2.209,7.453,0.531
			c0.786-0.652,14.15-0.7,16.988-2.348c2.838-1.648,1.48-2.273,3.705-2.49c2.224-0.219,1.984-1.096,4.22-1.602
			c2.237-0.51,6.937-0.356,8.369-1.471c1.432-1.115,5.437-4.174,7.108-4.411c1.008-0.142,2.988,0.593,4.96,0.896
			c0,0-15.909-23.584-17.446-26.536c-1.536-2.949-22.584-42.21-23.34-43.977c-0.756-1.764-16.838,11.926-20.64,16.733
			c-3.802,4.809-11.67,14.125-11.67,14.125l-13.048,7.408L506.936,942.224z"/>
		<path i:knockout="Off" fill-rule="evenodd" clip-rule="evenodd" fill="#478023" stroke="#6BBF34" d="M603.771,685.919
			l17.646,1.731l8.207-10.755l7.953,8.38l15.321-8.784l10.571,11.945l21.184-3.372l20.98,14.602
			c-5.335,11.792-11.753,24.121-19.397,26.638c-11.229,3.696-87.957,11.066-87.859,8.75c0.098-2.317,12.281-28.608,12.281-28.608
			L603.771,685.919z"/>
		
			<path i:knockout="Off" fill-rule="evenodd" clip-rule="evenodd" fill="#BEDDAA" stroke="#F49AB8" stroke-width="0.25" stroke-miterlimit="3.864" d="
			M1113.364,866.051l-2.838-4.291c0.045,1.924,0.084,3.848,0.119,5.772L1113.364,866.051z"/>
		
			<path i:knockout="Off" fill-rule="evenodd" clip-rule="evenodd" fill="#BEDDAA" stroke="#F49AB8" stroke-width="0.25" stroke-miterlimit="3.864" d="
			M1140.747,833.873"/>
		
			<path i:knockout="Off" fill-rule="evenodd" clip-rule="evenodd" fill="#6BBF34" stroke="#202038" stroke-width="0.25" stroke-miterlimit="3.864" d="
			M976.998,711.955l12.735,13.177l-18.957,16.208l-11.555-14.879L976.998,711.955z"/>
		
			<path i:knockout="Off" fill-rule="evenodd" clip-rule="evenodd" fill="#6BBF34" stroke="#202038" stroke-width="0.25" stroke-miterlimit="3.864" d="
			M998.043,738.164l8.658,14.639L988.575,765.7l-8.311-13.032L998.043,738.164z"/>
		
			<path i:knockout="Off" fill-rule="evenodd" clip-rule="evenodd" fill="#6BBF34" stroke="#202038" stroke-width="0.25" stroke-miterlimit="3.864" d="
			M1086.524,662.141l-10.18-21.215l-23.885,14.888l22.881,8.863L1086.524,662.141z"/>
		
			<path i:knockout="Off" fill-rule="evenodd" clip-rule="evenodd" fill="#6BBF34" stroke="#202038" stroke-width="0.25" stroke-miterlimit="3.864" d="
			M1009.235,682.837l-5.621,28.242l-14.892,11.699l-16.113-24.888l13.759-11.156l6.221,10.065L1009.235,682.837z"/>
		
			<path i:knockout="Off" fill-rule="evenodd" clip-rule="evenodd" fill="#6BBF34" stroke="#202038" stroke-width="0.25" stroke-miterlimit="3.864" d="
			M1003.856,744.732l13.76-11.154l21.519,1.858l-25.887,22.945L1003.856,744.732z"/>
		
			<path i:knockout="Off" fill-rule="evenodd" clip-rule="evenodd" fill="#6BBF34" stroke="#F49AB8" stroke-width="0.25" stroke-miterlimit="3.864" d="
			M565.492,510.353l31.969-22.747l-2.956-21.851l-18.618-4.955l-9.873,4.321l16.072,19.375l-9.417,6.656l-14.917-0.774"/>
		
			<path i:knockout="Off" fill-rule="evenodd" clip-rule="evenodd" fill="#6BBF34" stroke="#202038" stroke-width="0.25" stroke-miterlimit="3.864" d="
			M689.825,897.263c0,0,11.264-17.62,14.151-20.426c2.887-2.806,10.898-8.927,10.898-8.927l6.163,4.839l8.515-4.944l-4.566-3.338
			c0,0,15.385-12.138,37.628-19.082c0.842-0.265,4.11,1.002,4.11,1.002s11.027-5.442,11.231-3.695
			c0.204,1.746,3.122,4.741,1.052,7.866c-2.07,3.124-28.232,26.059-33.367,29.662c-5.136,3.604-13.723,10.286-13.723,10.286
			l4.598,9.14l-35.856,29.585l-36.278,13.324l10.387-36.21L689.825,897.263z"/>
		
			<path i:knockout="Off" fill-rule="evenodd" clip-rule="evenodd" fill="#9F6100" stroke="#F49AB8" stroke-width="0.25" stroke-linejoin="round" stroke-miterlimit="3.864" d="
			M556.501,913.953l-9.615,10.787l8.307,13.464l12.895-7.077L556.501,913.953z"/>
		
			<path i:knockout="Off" fill-rule="evenodd" clip-rule="evenodd" fill="#6BBF34" stroke="#F49AB8" stroke-width="0.25" stroke-miterlimit="3.864" d="
			M725.795,497.282c3.123,4.741,63.689-0.254,95.446,8.319c0,0-5.842,19.534-0.832,19.696c6.083,0.198,25.169,7.198,27.729,25.265
			c0,0,37.44-3.191,39.458-3.359l39.02-32.381c5.92-9.089,11.182-1.851,18.997-4.024c5.602-1.559-1.799-9.92-0.065-11.605"/>
		<path i:knockout="Off" fill="none" stroke="#E0C386" stroke-width="0.25" stroke-miterlimit="3.864" d="M931.668,473.798
			 M843.045,474.403c11.197,0.363,14.082,0.891,19.906,0.646 M793.341,484.392l-16.418-4.594l-20.46-0.664
			c-6.431-1.803-9.747-5.248-15.191-7.454 M838.059,487.584c7.717,0.83,13.134,0.426,22.12,0.717
			c7.188,0.234,11.75,10.244,20.598,10.53 M906.311,497.34c3.927-1.178,6.328-5.596,10.751-5.452
			c4.702,0.153,11.777,6.329,17.979,6.964 M731.651,476.588c9.09,7.691,12.342,15.918,26.892,18.856l11.06,0.359
			c3.493-0.757,9.612-1.428,13.369-1.886l13.271,0.431c14.881,1.644,25.32,3.578,39.594,6.506
			c8.102,1.568,18.382,7.268,26.876,6.093l24.33,0.791c10.414,5.849,18.617,8.291,30.602,9.695 M826.59,523.178l17.793-1.743
			c10.986,2.097,13.379,11.021,24.42,11.815l12.743-0.167"/>
		
			<path i:knockout="Off" fill-rule="evenodd" clip-rule="evenodd" fill="#202038" stroke="#6BBF34" stroke-width="2" stroke-miterlimit="3.864" d="
			M1072.673,681.995l-6.76-10.372l-15.012-5.128l-34.48,23.246l-4.966,19.271l10.109,16.283l17.912,2.03l31.587-26.817
			L1072.673,681.995z"/>
		<path i:knockout="Off" fill-rule="evenodd" clip-rule="evenodd" fill="none" d="M574.765,612.173"/>
		<path i:knockout="Off" fill-rule="evenodd" clip-rule="evenodd" fill="none" d="M556.554,446.541"/>
		<path i:knockout="Off" fill="none" stroke="#A5A5A5" stroke-linejoin="round" stroke-miterlimit="3.864" d="M1132.164,577.765
			 M1105.63,603.009 M1108.271,605.995 M1115.462,606.229"/>
		<path i:knockout="Off" fill="none" stroke="#000000" stroke-width="2" stroke-linejoin="round" stroke-miterlimit="3.864" d="
			M888.872,543.183c5.726-4.455,51.748-45.31,62.458-62.946"/>
		<path i:knockout="Off" fill="none" stroke="#DEDEDE" stroke-linejoin="round" stroke-miterlimit="3.864" d="M888.872,543.183
			c5.726-4.455,51.748-45.31,62.458-62.946"/>
		<path i:knockout="Off" fill-rule="evenodd" clip-rule="evenodd" fill="#E4D6E7" d="M555.853,561.669l-1.623-0.923l3.684-8.582"/>
		<path i:knockout="Off" fill="none" stroke="#E4D6E7" stroke-width="4" stroke-miterlimit="3.864" d="M678.386,925.607l6.855-5"/>
		<path i:knockout="Off" fill="#F8F400" stroke="#F49AB8" stroke-width="0.25" stroke-miterlimit="3.864" d="M586.09,752.498
			l-19.644,32.52l-6.534-4.272l19.645-32.521L586.09,752.498z"/>
		
			<path i:knockout="Off" fill-rule="evenodd" clip-rule="evenodd" fill="#9ED4E7" stroke="#00A8EB" stroke-width="0.25" stroke-miterlimit="3.864" d="
			M557.339,946.621c2.32,0.801,6.07,0.487,5.96,3.095c-0.116,2.751-5.149,3.894-6.278,4.438l-4.424-0.144l0.122-2.897
			C554.117,947.532,554.104,947.822,557.339,946.621z"/>
		<path i:knockout="Off" fill="none" stroke="#9ED4E7" stroke-width="6" stroke-miterlimit="3.864" d="M1144.366,813.687"/>
		<path i:knockout="Off" fill="none" stroke="#F49AB8" stroke-width="4" stroke-miterlimit="3.864" d="M1130.87,647.917"/>
		<path i:knockout="Off" fill="none" stroke="#202038" stroke-width="4" stroke-linejoin="round" stroke-miterlimit="3.864" d="
			M816.951,574.496c-1.537-2.951-11.848-7.927-24.847-1.677c-4.641,2.23-17.805,2.033-17.805,2.033 M565.459,452.05
			 M564.983,515.847c0.812,6.987-6.076,25.908-9.11,32.191 M620.805,597.134l11.311,20.671 M642.916,611.194
			c-1.919-7.023,0.611-14.482-5.399-16.418c-6.009-1.935-28.806-4.996-28.806-4.996 M618.014,637.071l19.339-12.135
			 M624.918,630.914l-3.098-5.321 M580.504,567.98c14.304,2.206,23.421-3.881,27.819-3.158c4.399,0.724,10.507,0.342,10.507,0.342
			 M576.062,594.521c3.994-2.771,3.563-5.685,14.021-4.185c10.457,1.499,15.914,3.416,15.914,3.416l-1.625-13.974 M595.949,608.8
			l25.458-12.807 M606.532,620.456l19.794-9.8 M602.401,613.36l21.502-10.905 M713.941,607.698l7.433-5.56l-0.82-33.093
			 M709.135,603.482l-6.896-7.185 M732.46,562.471l16.557,14.46 M751.763,603.705l3.951,24.493 M736.506,624.094l-3.236-15.188
			 M761.675,631.293c3.529,8.235,0.641,11.042,3.21,15.767c2.57,4.724,8.326,25.794,8.326,25.794 M764.885,647.06l34.896-13.37
			 M766.535,607.956l23.949-3.284 M772.307,569.566l0.983,22.656 M756.254,576.005l1.397,12.808 M784.252,575.174l-0.225,11.884
			 M789.37,598.254c4.246-2.182,25.133-11.656,27.117-12.751 M806.866,590.411l5.806,19.912 M789.37,598.254
			c4.246-2.182,25.133-11.656,27.117-12.751 M806.866,590.411l5.806,19.912 M847.971,587.394l-16.553-1.407
			c-2.813,1.068-6.169,1.83-6.169,1.83 M847.166,586.789l11.377-7.173 M786.291,566.249c0,0,12.253,11.419,14.754,11.21
			c2.501-0.208,51.196-12.55,51.196-12.55 M774.949,592.275c0,0,26.755-10.733,28.149-10.978c1.395-0.245,6.242-3.568,8.405-2.339
			c2.164,1.231,18.61-1.425,26.002,0.555c7.392,1.98,23.021-0.994,32.171-1.276c9.147-0.283,13.393-2.466,14.37-5.916
			 M831.524,570.327l19.858,1.805l-13.878,7.381 M879.682,570.73c-8.822-0.866-22.302,3.627-23.367-3.949 M863.951,562.968
			c6.825,2.252,15.975,1.969,15.975,1.969 M880.289,562.918l15.45-5.299 M861.745,589.001c3.078-0.77,9.081-5.216,14.887-5.028
			c5.808,0.188,18.106-2.603,18.106-2.603 M867.626,587.452l1.342,7.585 M886.447,594.154l2.771,26.195 M868.027,597.617
			l4.395,27.118 M873.015,636.937l13.263,13.773l16.495-3.815 M885.96,638.517c9.734,5.537,33.479,0.506,33.479,0.506
			 M857.085,548.533l38.888-16.142c6.489,3.691,9.708,9.452,16.654,12.144c-0.628-4.807-4.149-6.661-3.96-11.151
			c0.049-1.159,1.203-2.281,2.31-2.246c4.838,0.158,2.383,5.878,6.342,7.168c3.823,1.284,5.55-0.255,8.825,0.866
			c4.638,1.601,6.107,6.145,10.163,8.452l3.319,0.107l0.193-4.635c-2.744-10.386-18.31-5.669-19.247-16.288l4.978,0.161l6.439,4.851
			c0.16-3.767,0.156-6.957,0.392-9.27"/>
		<path i:knockout="Off" fill="none" stroke="#202038" stroke-width="4" d="M935.659,654.923l15.972-11.084 M1012.437,606.945
			l3.061,19.36l-1.387-6.542 M1013.269,620.024l-8.682,2.329l1.681,6.146 M1029.333,629.683c-0.156,3.766-2.098,13.709,1.455,21.367
			 M1016.477,632.602c0,0,7.354,16.047,3.708,17.088 M1006.646,635.908c0.562,3.064,6.219,13.399,6.219,13.399 M1057.076,632.324
			c-0.649,2.3-5.222,11.578-5.222,11.578 M1003.256,653.927c0,0,11.364-6.883,13.541-5.942c2.176,0.941,3.842,7.376,8.915,5.22
			c1.062-0.451,2.731-1.198,4.706-2.102c7.46-3.41,19.298-9.011,19.298-9.011l5.008,5.964 M1031.605,651.366l2.712,7.919
			 M917.315,669.701l12.157,13.737 M1052.985,531.687l-18.979-2.937c7.077-10.212,41.985-10.82,41.198-18.386 M966.802,572.978
			c4.904-1.436,7.918-3.948,11.328-6.013c6.817-4.13,16.501-3.96,24.623-6.162c8.819-2.325,13.672-12.32,23.764-11.992
			c2.35,0.076,3.404,4.607,4.154,6.516 M1002.176,561.363c1.172,1.779,2.601,4.001,2.472,7.042
			c-0.066,1.593-2.984,5.124-3.611,6.844c-1.572,4.445-0.621,11.437-2.343,16.167c-1.246,3.296-10.653,3.134-14.548,3.588
			 M966.802,572.978c4.904-1.436,7.918-3.948,11.328-6.013c6.817-4.13,16.501-3.96,24.623-6.162
			c8.819-2.325,13.672-12.32,23.764-11.992c2.35,0.076,3.404,4.607,4.154,6.516 M1002.176,561.363
			c1.172,1.779,2.601,4.001,2.472,7.042c-0.066,1.593-2.984,5.124-3.611,6.844c-1.572,4.445-0.621,11.437-2.343,16.167
			c-1.246,3.296-10.653,3.134-14.548,3.588 M789.388,788.242l7.602,29.832 M795.071,811.05
			c12.459-6.556,30.306-16.129,49.082-14.938 M558.252,911.845l-18.551,19.702 M556.642,910.633l-4.537-10.59 M588.877,920.961
			l8.236,14.77 M618.413,903.355l8.311,13.032 M697.505,885.05c-15.422,6.552-33.876,5.246-43.885,3.158 M716.537,861.289
			c16.672-14.54,46.542-26.911,56.642-30.064 M720.359,862.576l15.068,10.352 M714.634,867.031
			c4.131,7.097,6.318,7.747,13.751,2.188 M739.358,819.105l14.652,20.198 M754.015,820.844l6.139,14.598 M674.506,938.822
			c15.174-5.309,31-12.916,31.52,1.022 M698.602,932.062c2.432-5.141,21.893-20.174,30.48-26.854
			c8.588-6.684,25.544-14.834,16.559-24.988 M756.514,871.871l5.017,12.345 M761.157,866.8l14.556,22.519l-27.56,10.127
			 M769.843,857.801l10.733,21.232l9.074,21.179 M774.917,855.646l7.717,0.831l20.458,40.11 M785.839,846.138l20.898,29.685
			c0,0,11.955-7.734,22.03-10.307c10.076-2.574,30.154-5.983,30.154-5.983 M811.268,860.307l-7.782-12.437l16.5-10.485
			 M815.767,819.264c0.162,9.287,5.032,25.107,8.658,31.025 M823.053,817.18l21.393,44.203l4.562,10.009 M831.387,829.633
			l18.713-10.414 M758.668,886.444l2.472,7.043 M770.736,889.156l5.447,15.26 M814.707,857.517l3.309,13.452l6.603,14.135
			 M826.084,850.345l14.408,25.993 M881.653,806.32c0,0-7.459,6.139-5.394,9.687c2.066,3.548,0.286,6.39-3.634,7.423
			s-11.808,4.258-11.808,4.258"/>
		<path i:knockout="Off" fill="none" stroke="#202038" stroke-width="4" stroke-linejoin="round" stroke-miterlimit="3.864" d="
			M872.626,823.43l4.105,7.676 M890.514,898.266l10.847-7.771 M894.594,906.52l13.688-9.418 M900.431,912.51l13.111-8.857
			 M928.293,882.088c16.055,13.283,45.434,12.495,55.103,6.429 M919.689,915.454l11.171,10.806 M940.556,919.615
			c0,0-3.148-4.166-0.212-8.132c2.938-3.964,14.313-11.136,11.916-19.917 M923.656,913.263l26.626-14.218 M1071.808,735.337
			c0,0,3.002,7.638,0.545,13.36c-2.457,5.721-3.945,12.1-1.854,15.068 M1041.966,852.132l12.636,15.492 M1027.197,860.934
			l11.213,22.987 M1049.317,861.652l-18.592,7.518 M1091.261,878.095c0,0,20.494-13.257,24.365-13.13
			c3.871,0.125,11.182-2.54,17.939-5.221 M1140.821,832.135 M1104.272,871.558l5.115,10.028l18.158-10.436 M966.001,907.096
			c0,0,2.424,8.201,5.789,7.149c3.367-1.051,16.232-4.113,16.232-4.113 M1000.153,924.447c-7.798,14.25-38.872,28.904-46.713,30.971
			 M1045.392,949.513c0,0-4.168-6.224-6.957-5.737c-2.789,0.491-6.408,0.955-9.149,0.286c-2.739-0.671-23.096-18.258-23.096-18.258
			 M982.882,940.132l24.33,0.789 M1080.864,638.752c3.873,0.125,9.041-4.062,11.398,0.786c2.135,4.39,3.769,7.248,5.306,10.198
			c1.536,2.951-4.985,13.181-4.985,13.181 M1125.526,511.997"/>
		<path i:knockout="Off" fill="none" stroke="#202038" stroke-width="4" stroke-linejoin="round" stroke-miterlimit="3.864" d="
			M948.372,773.678c6.771,10.084,8.934,11.313,12.821,24.201"/>
		<path i:knockout="Off" fill="none" stroke="#202038" stroke-width="4" stroke-linejoin="round" stroke-miterlimit="3.864" d="
			M682.226,900.205c-7.506,7.299-16.623,13.385-22.225,14.943 M590.377,599.772c2.249-0.797,3.95-1.757,6.577-1.671
			c2.903,0.094,6.28,2.088,7.187,3.569 M877.858,548.336c-2.132,4.573-29.883,12.664-33.021,14.882 M824.141,771.678l6.826,21.976"
			/>
		<path i:knockout="Off" fill="none" stroke="#202038" stroke-width="4" d="M813.318,759.142l5.484,14.391 M800.859,765.699
			l3.334,12.871 M770.352,780.083l6.325,14.129 M785.01,773.887l5.33,11.484 M716.432,837.504l7.875,16.789 M723.072,831.047
			l11.807,15.469 M775.048,839.406l-7.912,3.806l-4.375-1.304l-6.759,2.682 M732.433,891.392l3.842,7.376 M845.978,812.179
			l-10.16,4.489 M864.313,813.845l-5.809,4.363l9.848,27.708 M851.391,817.175l9.229-6.667 M867.854,869.929l5.732-7.263
			 M873.278,873.763l5.734-7.263 M1070.142,893.072c6.391,6.01,13.271,0.432,19.588,8.178 M692.342,871.836
			c5.481-2.291,15.272-3.032,17.303-3.318 M609.926,910.77l7.12,11.65 M570.505,903.845l6.859,12.917l-11.081,7.399
			 M910.814,915.748l10.403,16.001c0,0,22.2-14.364,25.014-15.431c2.814-1.07,11.107-0.802,14.021-4.187
			c2.912-3.387,19.15-20.843,23.144-23.615c3.993-2.771,38.979-24.838,38.979-24.838 M1114.987,755.301l11.725-2.229
			 M676.995,596.78l6.916,7.815 M1086.108,933.953c1.835-0.811,15.059-2.558,16.004-6.95 M1129.681,930.661
			c-1.172-1.779-4.758-23.053-5.688-26.456c-1.078-3.951-4.564-8.269-12.131-7.791c-7.877,0.502-13.856,3.614-17.215,11.047
			c-3.954,8.748-4.578,17.918-10.088,23.832 M916.943,909.668l17.979-12.758 M1101.077,672.867l41.633-2.42"/>
		<path i:knockout="Off" fill="none" stroke="#202038" stroke-width="6" stroke-linejoin="round" stroke-miterlimit="3.864" d="
			M1044.062,954.841c9.955,0.323,40.754-2.7,52.636-8.696c3.983-2.01,12.423-7.058,30.177-18.35 M942.923,613.97l26.109,37.395
			 M967.804,654.226l19.061,27.303l-15.542,13.999 M822.118,524.193c4.018-3.35,40.254-9.135,51.313-8.776
			c11.061,0.359,44.484-4.357,47.371-7.165 M696.915,486.193c6.334,0.785,21.456,3.306,18.899-1.708 M563.848,450.837
			c4.326,2.462,6.539,2.533,15.987,1.68c9.449-0.854,28.749,6.65,33.365,9.784c10.767,7.311,27.639,53.688,30.257,57.253
			c6.219,3.537,11.469,7.043,14.368,13.809 M562.816,449.064"/>
		<path i:knockout="Off" fill="none" stroke="#202038" stroke-width="6" stroke-linejoin="round" stroke-miterlimit="3.864" d="
			M569.305,452.755 M666.904,620.095l41.882-34.607 M667.555,473.348 M630.466,459.961 M583.105,453.783 M613.2,462.301
			c3.392-1.63,11.809-4.257,17.266-2.34 M592.47,507.458l-0.188,30.739 M612.541,477.942l-0.75,44.064 M625.672,507.955
			l1.024,15.116 M612.577,490.243l16.527-0.624l101.871,29.296l49.362-1.879c0,0-7.243-0.682,0,0c9.375,0.885,9.62-4.909,9.62-4.909
			 M686.37,526.168l-49.084-17.836l-54.819-0.04 M581.832,523.354l43.181,0.242l18.924-2.287 M622.617,475.369
			c3.058-6.861,63.99,18.901,63.99,18.901 M642.897,493.431l3.928-14.375 M665.325,499.96l3.832-12.058 M683.278,546.952
			c0.919-8.672,3.695-61.372,3.363-66.604c-0.333-5.231,7.334-3.242,9.278,3.202c1.943,6.445,2.326,10.518,7.684,14.752
			c5.359,4.235,27.282,9.587,35.025,9.838c7.742,0.252,16.207-3.534,24.453-2.106c8.246,1.428,34.643,5.766,42.213,10.072
			c7.57,4.307,22.257,10.584,31.991,16.121s9.391,13.647,10.855,18.336 M703.046,577.179c0,0,21.021-12.66,29.414-14.708
			c8.392-2.047,86.851-11.103,86.851-11.103 M730.974,518.915l1.486,43.556 M750.93,518.402l2.161,40.678l-4.148,19.589
			 M771.439,517.907l3.478,48.842 M732.198,529.28l60.52-3.837l2.326,36.738 M732.371,551.446l85.671-9.401 M690.678,555.314
			c0,0,21.609-13.454,27.741-14.415c6.132-0.961,75.009-6.035,75.009-6.035 M569.545,525.856
			c-0.774,5.197-4.369,24.803-4.369,24.803s13.769,10.375,19.012,8.739c8.417-2.628,5.847-7.352,3.718-22.503 M595.268,538.293
			l2.217,20.957c0,0,6.205-2.699,11.686-1.361c5.48,1.338,30.795,5.06,38.993,7.647c8.197,2.586,31.59,11.729,34.926,12.155
			c6.059,0.776,17.601-4.389,17.601-4.389 M612.249,629.343c11.45-8.911,65.611-32.678,65.611-32.678l-14.912-27.168
			 M648.918,587.024l18.135-9.853l6.36-19.517"/>
		<path i:knockout="Off" fill="none" stroke="#202038" stroke-width="6" stroke-linejoin="round" stroke-miterlimit="3.864" d="
			M593.216,542.289c0,0,59.884,11.225,66.999,13.196c7.116,1.971,16.37,5.752,20.266,5.298c3.895-0.454,9.522-2.591,9.522-2.591
			 M661.394,553.783c2.359-3.404,10.207-18.812,10.207-18.812 M644.903,550.927l-1.65-13.396 M636.566,577.922l18.217-24.933
			 M619.546,574.468l0.09-28.421 M682.949,607.272l26.186-3.79l7.252,11.838l33.937-16.882l4.204,5.357l11.686-1.361l2.415,21.542
			 M740.859,586.528c8.084-7.859,23.332-14.905,33.984-18.04c10.653-3.135,47.395-7.744,47.395-7.744
			c4.302,3.04,26.445,3.178,35.895,2.325c9.45-0.853,21.257-5.111,21.257-5.111l2.253,12.254l99.463,4.97l2.981,34.323
			 M854.935,599.513c14.284-3.887,48.837-9.146,63.695-6.924c14.18,2.122,25.759,12.084,27.271,18.551 M730.903,625.653
			c-5.27,6.79-15.468,12.26-7.109,24.134c8.359,11.873,21.401,30.86,21.401,30.86l11.833-4.838l-6.749-10.66
			c0,0-8.515,4.945-12.312,3.081 M721.656,647.977l-36.758,31.294c0,0,9.993,12.507,15.474,13.845
			c5.481,1.338,17.607-10.45,17.607-10.45 M820.043,533.988c0,0,1.125,25.852,5.875,24.845c4.749-1.007,16.52-4.394,23.001-7.085
			c6.481-2.69,9.836-3.452,19.561-4.296c9.728-0.844,25.426,1.116,25.426,1.116l2.229,12.834c0,0,21.724-3.065,27.481-1.719
			c5.757,1.348,13.984-3.316,18.948-2.865c4.964,0.451,17.154,0.267,29.43-1.946c12.276-2.211,79.104-24.408,80.991-23.186
			c1.887,1.221,7.438,7.492,11.898,6.768c4.46-0.727,45.994-20.551,57.755-23.651 M805.287,490
			c3.208,2.715,6.969,5.448,13.052,5.645l20.005-1.671c10.885,1.224,12.521,8.383,23.363,10.62l11.059,0.359
			c12.113-1.637,22.85-3.464,35.612-4.065 M907.688,501.446c1.756-2.264,11.391-4.852,15.666-1.232
			c4.279,3.62,4.131,7.096,8.53,7.818c4.4,0.723,12.263-1.922,14.036,8.578c1.169,6.926,9.352,1.463,6.758-2.682
			c-2.594-4.146-3.578-7.078-6.724-11.24c-3.148-4.164,1.044-10.029,6.205-2.699 M926.877,482.345 M565.056,514.109
			c2.325,10.518,14.506,23.675,27.225,24.087c12.718,0.413,26.866,0.348,35.993,0.008c8.319-0.309,34.724-9.314,43.327-3.234
			c8.549,6.041,37.14,50.438,37.186,50.517c0,0,23.753,1.351,38.659,2.415c9.444,0.673,30.268,4.463,40.53,10.597l8.016,19.985
			l10.31,44.423 M799.537,639.482l59.422-17.215 M818.958,612.268l10.479,40.367 M841.443,604.296l9.756,44.405 M765.879,492.202
			c23.363,0.759,44.273-5.96,63-10.138c7.742,0.251,14.654,0.475,21.566,0.7c12.719,0.413,21.58-2.925,34.481-3.521l23.63,4.248
			l18.321-1.146 M864.34,645.646c5.646-9.099,20.302-24.877,33.597-28.495c19.045-5.184,52.824-5.247,84.492-7.7 M905.53,660.327
			l46.759-32.129"/>
		<path i:knockout="Off" fill="none" stroke="#202038" stroke-width="6" stroke-linejoin="round" stroke-miterlimit="3.864" d="
			M958.632,635.364l26.578-13.059 M990.583,639.303c9.092-5.506,36.331-12.816,42.639-13.119c14.426-0.692,21.85,7.09,37.576,1.8
			 M991.16,638.741l24.476,36.762 M911.201,499.53c7.632,2.858,16.669,24.905,25.205,26.053 M896.859,682.09
			c5.761-5.326,20.83-14.698,27.528-15.931c6.695-1.233,16.747-3.227,21.369,5.335 M898.712,572.508l-7.385,4.401l10.962,2.676
			l-5.173,4.474l0.82,33.093c0,0,7.057,16.472,5.633,23.967c-1.422,7.496,2.539,25.201,4.855,29.338 M914.069,615.354l13.611,31.768
			c0,0,8.146,10.417,7.156,14.155 M935.035,525.248c4.037,2.741,19.794,9.924,28.929,9.931c9.138,0.007,13.646-1.878,19.888-5.446
			c6.241-3.568,27.413-6.651,31.923-8.536c4.511-1.884,11.125-7.76,15.875-8.767c9.498-2.012,27.666,0.257,37.978-1.087
			 M1055.329,535.244c-12.875,16.405-50.682,33.161-72.76,44.627 M1000.63,571.755c3.604,6.499,10.059,24.111,10.317,31.081
			 M1030.522,598.25l-5.366-30.34l36.456-11 M1037.469,564.829l7.073,29.235 M1049.806,561.169l7.098,28.656 M1078.851,634.046
			l49.328-27.404c0,0,9.416,13.068,11.457,17.195 M1144.454,627.763l-22.742,15.724c0,0-12.713-22.79-13.802-24.018
			 M1138.526,927.304 M827.773,751.199c0,0-59.081,28.829-64.733,31.546c-5.652,2.718-7.295,15.429-12.923,17.565
			c-5.627,2.137-49.883,27.387-54.38,28.979c-4.498,1.598-5.246,6.214-15.37,9.944c-10.125,3.732-40.279,9.716-50.403,13.448
			c-10.125,3.73-38.889,16.141-38.889,16.141l3.74,16.363 M835.345,764.674c0,0-25.008,12.646-32.921,16.45
			s-33.433,18.059-40.288,23.058c-6.856,4.997-42.019,24.74-44.475,30.463c-2.457,5.719-29.033,18.78-39.711,22.494
			c-12.743,4.434-55.957,13.848-70.701,22.07c-14.744,8.224-38.604,22.532-48.998,32.636l19.117,32.525 M852.337,798.987l-8.4-4.334
			l7.052-9.633l-12.239,1.343l7.075-10.211l-12.515,1.332l5.091-9.117 M578.442,958.329l-5.644-10.626
			c0,0,15.224-6.466,24.315-11.973c9.093-5.506,42.695-27.619,42.695-27.619s55.812-10.371,61.487-13.667
			c5.676-3.298,25.015-15.432,33.48-19.22c8.466-3.783,40.466-33.597,46.664-29.809c7.018,4.287,21.128-28.32,80.17-49.608
			 M557.682,938.512c7.408-4.979,34.033-19.199,45.963-26.354c11.931-7.154,32.508-21.197,37.474-21.99
			c14.196-2.256,40.2-12.343,50.154-16.959 M690.667,897c6.117-13.725,21.129-28.321,27.96-32.74s-10.986-2.096-10.986-2.096
			l7.1-10.791l-10.1,3.151l6.62-12.546 M704.638,893.973c4.252,4.197,23.273-0.406,34.724-9.315
			c13.924-10.833,43.086-36.89,43.086-36.89 M746.909,889.545c10.653-3.137,34.749-9.896,47.858-18.754
			c13.109-8.854,42.817-30.516,60.301-38.067 M897.289,829.451c9.695-6.646,21.292-19.031,34.709-22.077
			s68.489-22.142,68.489-22.142l17.681-12.189 M862.116,718.088l6.58,14.717"/>
		<path i:knockout="Off" fill="none" stroke="#202038" stroke-width="6" stroke-linejoin="round" stroke-miterlimit="3.864" d="
			M871.435,733.475l5.708,22.229l10.255,19.476 M847.022,747.764l8.863,13.051l19.5-2.848 M896.498,716.884l0.337,31.453
			l2.971,21.445l3.691,17.522l-20.137,17.911 M968.185,697.746l-19.437,14.453l-51.913,36.138 M975.414,710.163l-14.987,14.017
			l-24.059,18.943c0,0-24.029,18.364-33.649,23.272c-9.622,4.908-40.988,26.516-44.071,33.956
			c-3.082,7.441-13.158,10.015-10.613,15.318c2.544,5.305,13.342,38.142,13.342,38.142 M909.548,761.977l25.842,43.766
			 M877.899,882.193c5.271-6.79,1.4-6.918,10.012-14.178c8.613-7.262,93.091-67.174,93.091-67.174 M936.435,899.176l-17.58-29.577
			l-17.753,13.929 M869.216,851.745l20.305,17.483l27.598,41.502l-13.783,11.735 M910.521,817.699l14.004,22.498 M928.608,809.004
			l42.681,64.616 M948.784,803.277l44.647,70.482 M1128.581,689.031 M945.672,890.191l103.338-73.799
			c0,0,47.79-33.469,55.853-37.635 M1072.392,800.328 M1124.098,742.837 M1067.628,768.85l30.596,49.141 M1091.487,754.539
			l29.564,47.369l8.133,30.43 M1140.821,832.135c-5.58,0.979-47.322,6.006-47.322,6.006 M956.958,766.998
			c0,0,14.123,19.601,18.206,27.854c4.081,8.256,45.275,68.764,45.275,68.764l77.784-45.625l27.724-0.841 M1008.388,873.666
			l12.343,22.445 M1040.118,882.816l-49.453,30.3 M1012.494,881.341l-26.245,18.291 M1068.95,803.117l12.872,23.044
			 M1086.296,825.143c0,0,22.889,34.971,27.068,40.908 M1117.854,982.8c-10.58,1.396-20.104-3.276-23.94-17.321
			c-1.644-6.013-8.417-9.38-14.171-11.195 M1142.135,879.748 M1117.044,791.916l25.274-8.462 M1142.318,783.454 M1143.423,678.491
			 M1112.983,717.529l25.152-5.563"/>
		<path i:knockout="Off" fill="none" stroke="#202038" stroke-width="6" stroke-linejoin="round" stroke-miterlimit="3.864" d="
			M1067.157,609.301l42.474-22.405l-9.171-18.862 M1093.155,596.802l-10.807-19.494 M1009.329,903.862l6.699,11.819
			 M969.043,782.473l39.376-27.729"/>
		<path i:knockout="Off" fill="none" stroke="#202038" stroke-width="6" stroke-linejoin="round" stroke-miterlimit="3.864" d="
			M1020.661,818.953l19.143,31.946 M725.527,632.323c0,0-31.708-0.061-34.038,2.202c-3.463,3.369-1.122,6.925,0.993,9.314
			c6.75,7.628,32.944,46.028,32.944,46.028"/>
		<path i:knockout="Off" fill="none" stroke="#202038" stroke-width="6" stroke-linejoin="round" stroke-miterlimit="3.864" d="
			M719.779,830.359l-5.68-9.756 M1039.188,799.833l28.004,44.995c0,0-8.146,7.516-9.939,12.439
			c-1.252,3.44-4.31,10.303-0.155,16.819c4.155,6.515,16.596,26.644,16.596,26.644 M1095.78,915.37
			c-22.104,12.042-47.857,18.75-64.374,16.472c-16.517-2.273-30.194-6.2-36.659-10.469c-6.465-4.271-6.432-18.194-7.465-19.967
			c-1.033-1.774-6.243-9.485-6.243-9.485 M628.81,870.47l1.38,3.103l11.588,0.956l-10.32,8.367l15.532-0.655l-8.686,8.998
			 M902.733,923.605c1.758,4.265,2.158,10.886,0.951,16.854c-0.7,3.461-7.898,16.568-14.973,26.782 M998.552,835.355l-19.391,13.594
			 M1016.989,866.635c0,0,3.689-8.698-5.979-2.631c-4.505,2.828-22.812,13.745-27.282,16.634c-6.828,4.42-8.27-0.849-12.4-7.942
			 M939.164,860.687l14.267,22.796 M1146.407,671.258 M1118.821,932.982c-1.94-3.252-10.168-21.504-15.724-21.104
			c-7.046,0.508-10.854,12.975-7.321,16.006c3.342,2.864,7.737-2.801,6.678-7.324c-0.82-3.508-2.461-15.103-2.461-15.103"/>
		<path i:knockout="Off" fill="none" d="M1126.214,931.045c-3.359-5.62-10.554-22.904-11.391-29.312 M1121.169,933.059
			c-3.361-5.617-10.518-21.02-12.465-30.655"/>
		<path i:knockout="Off" fill="none" stroke="#F49AB8" stroke-width="6" stroke-linejoin="round" stroke-miterlimit="3.864" d="
			M1096.443,966.642l4.279-1.552c0.191-0.428,0.379-0.856,0.56-1.286C1098.333,965.529,1096.443,966.642,1096.443,966.642z"/>
		<path i:knockout="Off" fill="none" stroke="#202038" stroke-width="6" stroke-linejoin="round" stroke-miterlimit="3.864" d="
			M1036.743,949.709c-3.512-0.113-6.483,2.778-6.642,6.457c-0.154,3.679,2.569,6.754,6.08,6.869c3.513,0.114,6.485-2.777,6.64-6.457
			C1042.977,952.899,1040.256,949.824,1036.743,949.709z"/>
		<path i:knockout="Off" fill="none" stroke="#F49AB8" stroke-width="6" stroke-linejoin="round" stroke-miterlimit="3.864" d="
			M738.21,899.559c-1.607,0.021-2.904,0.311-3.754,0.995L738.21,899.559z"/>
		<path i:knockout="Off" fill="none" stroke="#202038" stroke-width="6" stroke-linejoin="round" stroke-miterlimit="3.864" d="
			M738.21,899.559c7.887-0.105,23.425,6.393,32.247,6.054c0,0,20.226-3.626,32.009-7.305s38.027-21.97,56.113-30.665"/>
		<path i:knockout="Off" fill="none" stroke="#202038" stroke-width="6" stroke-linejoin="round" stroke-miterlimit="3.864" d="
			M1127.131,948.874c-7.993,4.509-19.434,11.176-25.849,14.93c-0.181,0.43-0.368,0.858-0.56,1.286"/>
		<path i:knockout="Off" fill="none" stroke="#F49AB8" stroke-width="6" stroke-linejoin="round" stroke-miterlimit="3.864" d="
			M1127.464,742.095"/>
		<path i:knockout="Off" fill="none" stroke="#202038" stroke-width="6" stroke-linejoin="round" stroke-miterlimit="3.864" d="
			M1120.536,892.969l6.523,10.758"/>
		<path i:knockout="Off" fill="none" stroke="#202038" stroke-width="7" d="M1093.776,673.978l28.759,66.487 M895.198,682.036
			c10.17,1.779,17.565,16.812,17.565,16.812 M582.479,599.951c6.416,5.43,27.534,29.899,23.223,40.202
			c-4.311,10.302-12.996,19.302-11.679,27.466c1.316,8.165,5.917,30.359,5.503,40.206c-0.415,9.851-12.565,22.217-5.068,28.263
			c7.498,6.044,57.492,0.367,68.188-1.849c21.786-4.514,33.667-10.51,39.158-22.515c5.489-12.004,14.507-15.771,24.055-18.941
			s48.411-18.732,68.083-25.636c19.671-6.903,63.527-22.364,71.181-20.314c4.929,1.321,33.655,42.28,33.655,42.28l10.1,16.571
			l41.052-34.634l28.348,36.887l59.252,91.841 M978.276,707.937l37.359-32.434l62.465-36.84 M1019.899,771.358
			c0,0,35.533-28.434,43.014-35.15c7.482-6.718,33.514-33.139,43.158-38.626c9.645-5.488,34.328-12.83,37.352-19.091
			c3.033-6.284,1.764-15.607,1.764-15.607 M932.46,691.366c2.667,2.408,21.696,23.908,29.525,35.185
			c7.832,11.277,58.197,90.648,58.197,90.648 M907.47,706.219c0,0-19.51,16.188-30.31,22.799
			c-10.8,6.613-41.946,23.004-41.946,23.004 M878.313,754.233l18.521-5.896 M944.228,674.925
			c4.286-9.723,12.691-21.622,22.064-24.229c5.604-1.558,24.291-11.394,23.309-14.326c-2.545-7.585-5.514-26.864-5.514-26.864
			s27.342-4.913,37.97-7.469c10.629-2.556,33.72-6.367,45.476-14.767 M1056.903,589.825l65.632,150.64 M570.85,586.812
			c15.151-4.73,46.489-13.252,56.438-12.091c13.775,1.607,23.07,17.572,26.525,27.545c3.456,9.974,12.416,20.708,31.844,19.597
			c19.428-1.11,30.756-7.123,35.033-3.504c4.277,3.62,15.327,17.322,46.083,10.198c16.581-3.841,77.64-29.386,88.162-29.044
			 M897.307,829.453l-35.93,24.358l-0.585,13.903c0,0,12.5,9.545,17.563,16.813c9.921,14.243,33.915,49.25,42.055,66.338
			c1.788,3.755,3.632,5.337,10.841,5.571c14.93,0.486,104.082,0.479,114.784-3.814l40.515-21.096 M894.874,687.941
			c0,0-22.485,22.938-31.025,28.463c-8.539,5.524-22.225,14.943-31.797,18.69c-9.572,3.751-3.229,10.918-2.221,13.271
			c1.008,2.354,5.423,15.839,10.376,16.581c4.952,0.739,15.679-4.133,15.679-4.133s11.791,22.427,14.359,27.151
			c2.57,4.724,9.687,6.696,13.188,15.511c3.507,8.814,11.793,17.443,13.856,25.975c4.245,17.54,22.573,42.5,22.573,42.5
			s68.481-48.247,84.431-58.751c6.83-4.418,81.804-59.726,102.492-66.866c3.691-1.273,10.997-2.718,20.662-4.24"/>
		<path i:knockout="Off" fill="none" stroke="#202038" stroke-width="12" stroke-linecap="round" stroke-miterlimit="3.864" d="
			M758.079,795.348l24.589,47.206"/>
		<path i:knockout="Off" fill="none" stroke="#F49AB8" stroke-width="8" stroke-miterlimit="3.864" d="M1119.039,931.557
			 M1126.739,929.881"/>
		<path i:knockout="Off" fill="none" stroke="#202038" stroke-width="0.35" stroke-miterlimit="3.864" d="M1149.147,662.245
			 M1141.37,662.863l-39.949,1.894"/>
		<path i:knockout="Off" fill="none" stroke="#F49AB8" stroke-width="9.921" stroke-linejoin="round" stroke-miterlimit="3.864" d="
			M1092.294,665.877"/>
		<path i:knockout="Off" fill="none" stroke="#202038" stroke-width="12" stroke-linejoin="round" stroke-miterlimit="3.864" d="
			M913.061,704.949l37.53,55.459 M647.719,906.171l-4.317-15.804 M924.179,782.756l46.783-32.709 M851.699,584.325l3.236,15.188
			 M632.235,852.607l4.314,17.418"/>
		<path i:knockout="Off" fill="none" stroke="#202038" stroke-width="9.638" stroke-linejoin="round" stroke-miterlimit="3.864" d="
			M854.935,599.513l9.369,47.003"/>
		<path i:knockout="Off" fill="none" stroke="#202038" stroke-width="5" stroke-linejoin="round" stroke-miterlimit="3.864" d="
			M1081.231,957.641c2.809,0.092,5.188-2.221,5.311-5.166c0.125-2.942-2.051-5.404-4.861-5.494
			c-2.811-0.092-5.186,2.223-5.311,5.165C1076.245,955.091,1078.423,957.549,1081.231,957.641z"/>
		<path i:knockout="Off" fill="none" stroke="#F49AB8" stroke-width="2" stroke-linejoin="round" stroke-miterlimit="3.864" d="
			M969.043,782.473l-10.827,7.188"/>
		<path i:knockout="Off" fill="none" stroke="#FFFFFF" stroke-width="5.102" stroke-linejoin="round" stroke-miterlimit="3.864" d="
			M929.651,849.937l4.43,6.524 M1127.193,742.138 M968.185,697.746l-19.437,14.453l-51.913,36.138 M976.568,709.041l-16.142,15.139
			l-24.059,18.943c0,0-24.029,18.364-33.649,23.272c-9.622,4.908-40.988,26.516-44.071,33.956
			c-3.082,7.441-13.158,10.015-10.613,15.318c2.544,5.305,13.342,38.142,13.342,38.142 M942.923,613.97l26.109,37.395
			 M696.915,486.193c6.334,0.785,21.456,3.306,18.899-1.708 M563.848,450.837c4.326,2.462,6.539,2.533,15.987,1.68
			c9.449-0.854,28.749,6.65,33.365,9.784c10.767,7.311,27.639,53.688,30.257,57.253c6.219,3.537,11.469,7.043,14.368,13.809
			 M562.816,449.064 M569.305,452.755"/>
		<path i:knockout="Off" fill="none" stroke="#FFFFFF" stroke-width="5.102" stroke-linejoin="round" stroke-miterlimit="3.864" d="
			M666.904,620.095l41.882-34.607 M667.555,473.348 M630.466,459.961 M583.105,453.783 M613.2,462.301
			c3.392-1.63,11.809-4.257,17.266-2.34 M592.47,507.458l-0.188,30.739 M612.541,477.942l-0.75,44.064 M625.672,507.955
			l1.024,15.116 M612.577,490.243l16.527-0.624l101.871,29.296l49.362-1.879c0,0-7.243-0.682,0,0c9.375,0.885,9.62-4.909,9.62-4.909
			 M686.37,526.168l-49.084-17.836l-54.819-0.04 M581.832,523.354l43.181,0.242l18.924-2.287 M622.617,475.369
			c3.058-6.861,63.99,18.901,63.99,18.901 M642.897,493.431l3.928-14.375 M665.325,499.96l3.832-12.058 M683.278,546.952
			c0.919-8.672,3.695-61.372,3.363-66.604c-0.333-5.231,7.334-3.242,9.278,3.202c1.943,6.445,2.326,10.518,7.684,14.752
			c5.359,4.235,27.282,9.587,35.025,9.838c7.742,0.252,16.207-3.534,24.453-2.106c8.246,1.428,34.643,5.766,42.213,10.072
			c7.57,4.307,22.257,10.584,31.991,16.121s9.391,13.647,10.855,18.336 M703.046,577.179c0,0,21.021-12.66,29.414-14.708
			c8.392-2.047,86.851-11.103,86.851-11.103 M730.974,518.915l1.486,43.556 M750.93,518.402l2.161,40.678l-4.148,19.589
			 M771.439,517.907l3.478,48.842 M732.198,529.28l60.52-3.837l2.326,36.738 M732.371,551.446l85.671-9.401 M690.678,555.314
			c0,0,21.609-13.454,27.741-14.415c6.132-0.961,75.009-6.035,75.009-6.035 M569.545,525.856
			c-0.774,5.197-4.369,24.803-4.369,24.803s13.769,10.375,19.012,8.739c8.417-2.628,5.847-7.352,3.718-22.503 M661.394,553.783
			c2.359-3.404,10.207-18.812,10.207-18.812 M644.903,550.927l-1.65-13.396 M636.566,577.922l18.217-24.933 M619.546,574.468
			l0.09-28.421 M682.949,607.272l26.186-3.79l7.252,11.838l33.937-16.882l4.204,5.357l11.686-1.361l2.531,22.707 M740.859,586.528
			c8.084-7.859,23.332-14.905,33.984-18.04c10.653-3.135,47.395-7.744,47.395-7.744c4.302,3.04,26.445,3.178,35.895,2.325
			c9.45-0.853,21.257-5.111,21.257-5.111l2.253,12.254l99.463,4.97l2.981,34.323 M854.935,599.513
			c14.284-3.887,48.837-9.146,63.695-6.924c14.18,2.122,25.759,12.084,27.271,18.551 M730.903,625.653
			c-5.27,6.79-15.468,12.26-7.109,24.134c8.359,11.873,21.401,30.86,21.401,30.86l11.833-4.838l-6.749-10.66
			c0,0-8.515,4.945-12.312,3.081"/>
		<path i:knockout="Off" fill="none" stroke="#FFFFFF" stroke-width="5.102" stroke-linejoin="round" stroke-miterlimit="3.864" d="
			M721.656,647.977l-36.758,31.294c0,0,9.993,12.507,15.474,13.845c5.481,1.338,17.607-10.45,17.607-10.45 M820.043,533.988
			c0,0,1.125,25.852,5.875,24.845c4.749-1.007,16.52-4.394,23.001-7.085c6.481-2.69,9.836-3.452,19.561-4.296
			c9.728-0.844,25.426,1.116,25.426,1.116l2.229,12.834c0,0,21.724-3.065,27.481-1.719c5.757,1.348,13.984-3.316,18.948-2.865
			c4.964,0.451,17.154,0.267,29.43-1.946c12.276-2.211,79.104-24.408,80.991-23.186c1.887,1.221,7.438,7.492,11.898,6.768
			c4.46-0.727,45.994-20.551,57.755-23.651 M907.688,501.446c1.756-2.264,11.391-4.852,15.666-1.232
			c4.279,3.62,4.131,7.096,8.53,7.818c4.4,0.723,12.263-1.922,14.036,8.578c1.169,6.926,9.352,1.463,6.758-2.682
			c-2.594-4.146-3.578-7.078-6.724-11.24c-3.148-4.164,1.044-10.029,6.205-2.699 M926.877,482.345 M565.056,514.109
			c2.325,10.518,14.506,23.675,27.225,24.087c12.718,0.413,26.866,0.348,35.993,0.008c8.319-0.309,34.724-9.314,43.327-3.234
			c8.549,6.041,37.14,50.438,37.186,50.517c0,0,23.753,1.351,38.659,2.415c9.444,0.673,30.268,4.463,40.53,10.597l8.016,19.985
			l10.31,44.423 M818.958,612.268l10.479,40.367 M841.443,604.296l9.756,44.405 M864.34,645.646
			c5.646-9.099,20.302-24.877,33.597-28.495c19.045-5.184,52.824-5.247,84.492-7.7 M905.53,660.327l46.759-32.129 M958.632,635.364
			l26.578-13.059 M991.16,638.741l24.476,36.762 M911.201,499.53c7.632,2.858,16.669,24.905,25.205,26.053 M898.712,572.508
			l-7.385,4.401l10.962,2.676l-5.173,4.474l0.82,33.093c0,0,7.057,16.472,5.633,23.967c-1.422,7.496,2.539,25.201,4.855,29.338
			 M914.069,615.354l13.611,31.768c0,0,8.146,10.417,7.156,14.155 M1055.329,535.244c-12.875,16.405-50.682,33.161-72.76,44.627
			 M1000.63,571.755c3.604,6.499,10.059,24.111,10.317,31.081 M1030.522,598.25l-5.366-30.34l36.456-11 M1037.469,564.829
			l7.073,29.235 M1049.806,561.169l7.098,28.656 M1078.851,634.046l49.328-27.404c0,0,9.416,13.068,11.457,17.195 M827.762,751.488
			c0,0-59.069,28.54-64.721,31.257c-5.652,2.718-7.295,15.429-12.923,17.565c-5.627,2.137-49.883,27.387-54.38,28.979
			c-4.498,1.598-5.246,6.214-15.37,9.944c-10.125,3.732-40.279,9.716-50.403,13.448c-10.125,3.73-38.889,16.141-38.889,16.141
			l3.74,16.363 M690.667,897c6.117-13.725,21.129-28.321,27.96-32.74s-10.986-2.096-10.986-2.096l7.1-10.791l-10.1,3.151
			l6.62-12.546 M746.909,889.545c10.653-3.137,34.749-9.896,47.858-18.754c13.109-8.854,42.817-30.516,60.301-38.067
			 M858.579,867.643c-18.086,8.695-44.33,26.986-56.113,30.665s-32.009,7.305-32.009,7.305c-10.621,0.408-30.984-9.101-36-5.059
			 M897.289,829.451c9.695-6.646,21.292-19.031,34.709-22.077s68.489-22.142,68.489-22.142l17.681-12.189 M862.116,718.088
			l6.58,14.717 M871.435,733.475l5.708,22.229l10.255,19.476"/>
		<path i:knockout="Off" fill="none" stroke="#FFFFFF" stroke-width="5.102" stroke-linejoin="round" stroke-miterlimit="3.864" d="
			M847.022,747.764l8.863,13.051l20.895-3.092 M896.498,716.884l0.337,31.453l2.971,21.445l3.691,17.522l-20.137,17.911
			 M909.548,761.977l25.842,43.766 M936.435,899.176l-17.58-29.577l-17.753,13.929 M869.216,851.745l20.305,17.483l27.598,41.502
			l-13.783,11.735 M928.608,809.004l42.681,64.616 M948.784,803.277l44.647,70.482 M1128.581,689.031 M945.672,890.191
			l103.338-73.799c0,0,47.79-33.469,55.853-37.635 M1072.392,800.328 M1124.098,742.837 M1067.628,768.85l30.596,49.141
			 M1091.487,754.539l29.564,47.369l8.133,30.43 M1140.821,832.135c-5.58,0.979-47.322,6.006-47.322,6.006 M956.958,766.998
			c0,0,14.123,19.601,18.206,27.854c4.081,8.256,45.275,68.764,45.275,68.764l77.784-45.625l27.724-0.841 M1008.388,873.666
			l12.343,22.445 M1040.118,882.816l-49.453,30.3 M1012.494,881.341l-26.245,18.291 M1068.95,803.117l12.872,23.044
			 M1086.296,825.143c0,0,22.889,34.971,27.068,40.908 M1117.854,982.8c-10.58,1.396-20.104-3.276-23.94-17.321
			c-1.566-5.727-7.792-9.058-13.353-10.929 M1142.135,879.748 M1117.044,791.916l25.274-8.462 M1142.318,783.454 M1143.423,678.491
			 M1112.983,717.529l25.152-5.563"/>
		<path i:knockout="Off" fill="none" stroke="#FFFFFF" stroke-width="5.102" stroke-linejoin="round" stroke-miterlimit="3.864" d="
			M1067.157,609.301l42.474-22.405l-9.171-18.862 M1093.155,596.802l-10.807-19.494 M1009.329,903.862l6.699,11.819"/>
		<path i:knockout="Off" fill="none" stroke="#FFFFFF" stroke-width="5.102" stroke-linejoin="round" stroke-miterlimit="3.864" d="
			M969.043,782.473l39.376-27.729"/>
		<path i:knockout="Off" fill="none" stroke="#FFFFFF" stroke-width="5.102" stroke-linejoin="round" stroke-miterlimit="3.864" d="
			M704.638,893.973c4.252,4.197,23.273-0.406,34.724-9.315c13.924-10.833,43.086-36.89,43.086-36.89 M762.136,804.182
			c-6.856,4.997-42.019,24.74-44.475,30.463c-2.457,5.719-29.033,18.78-39.711,22.494c-12.743,4.434-55.957,13.848-70.701,22.07
			c-14.744,8.224-38.604,22.532-48.998,32.636l19.117,32.525 M1020.661,818.953l19.143,31.946 M822.118,524.193
			c4.018-3.35,40.254-9.135,51.313-8.776c11.061,0.359,44.484-4.357,47.371-7.165"/>
		<path i:knockout="Off" fill="none" stroke="#FFFFFF" stroke-width="5.102" stroke-linejoin="round" stroke-miterlimit="3.864" d="
			M725.527,632.323c0,0-31.708-0.061-34.038,2.202c-3.463,3.369-1.122,6.925,0.993,9.314c6.75,7.628,32.944,46.028,32.944,46.028
			 M967.024,653.041l19.84,28.489l-15.542,13.999 M578.442,958.329l-5.644-10.626c0,0,15.224-6.466,24.315-11.973
			c9.093-5.506,42.695-27.619,42.695-27.619s55.812-10.371,61.487-13.667c5.676-3.298,25.015-15.432,33.48-19.22
			c8.466-3.783,40.466-33.597,46.664-29.809c7.018,4.287,21.128-28.32,80.17-49.608 M852.337,798.987l-8.4-4.334l7.052-9.633
			l-12.239,1.343l7.075-10.211l-12.515,1.332l5.091-9.117 M719.779,830.359l-5.68-9.756 M907.335,853.553
			c27.561-20.012,73.667-52.711,73.667-52.711 M1039.188,799.833l28.004,44.995c0,0-8.146,7.516-9.939,12.439
			c-1.252,3.44-4.31,10.303-0.155,16.819c4.155,6.515,16.596,26.644,16.596,26.644 M1095.78,915.37
			c-22.104,12.042-47.857,18.75-64.374,16.472c-16.517-2.273-30.194-6.2-36.659-10.469c-6.465-4.271-6.432-18.194-7.465-19.967
			c-1.033-1.774-6.243-9.485-6.243-9.485 M557.682,938.512c7.408-4.979,34.033-19.199,45.963-26.354
			c11.931-7.154,32.508-21.197,37.474-21.99c14.196-2.256,40.2-12.343,50.154-16.959 M628.81,870.47l1.38,3.103l11.588,0.956
			l-10.32,8.367l15.532-0.655l-8.686,8.998 M902.733,923.605c1.758,4.265,2.158,10.886,0.951,16.854
			c-0.7,3.461-7.898,16.568-14.973,26.782 M998.552,835.355l-19.391,13.594 M1016.989,866.635c0,0,3.689-8.698-5.979-2.631
			c-4.505,2.828-22.812,13.745-27.282,16.634c-6.828,4.42-8.27-0.849-12.4-7.942 M910.521,817.699l14.004,22.498 M939.164,860.687
			l14.267,22.796"/>
		<path i:knockout="Off" fill="none" stroke="#FFFFFF" stroke-width="5.102" stroke-linejoin="round" stroke-miterlimit="3.864" d="
			M612.249,629.343c6.813-5.301,28.749-15.864,45.398-23.549 M648.918,587.024l18.135-9.853 M593.216,542.289
			c0,0,59.884,11.225,66.999,13.196c1.077,0.298,2.201,0.638,3.352,0.997 M644.865,564.641c1.275,0.31,2.391,0.609,3.298,0.896
			c3.718,1.172,10.565,3.696,17.249,6.142 M595.268,538.293l2.217,20.957c0,0,6.205-2.699,11.686-1.361
			c1.89,0.461,6.138,1.207,11.229,2.089 M1146.407,671.258 M1120.536,892.969l6.523,10.758 M799.537,639.482l59.422-17.215
			 M1144.454,627.763l-22.742,15.724c0,0-12.713-22.79-13.802-24.018 M1138.526,927.304 M1096.443,966.642
			c0,0,19.019-11.187,30.688-17.768 M865.927,791.887l8.587-6.684"/>
		
			<path i:knockout="Off" fill="none" stroke="#F8F400" stroke-width="3.118" stroke-linejoin="round" stroke-miterlimit="3.864" stroke-dasharray="2.835 1.417" d="
			M1130.87,647.917"/>
		<path i:knockout="Off" fill="none" stroke="#FFFFFF" stroke-width="3.118" stroke-linejoin="round" stroke-miterlimit="3.864" d="
			M775.048,839.406l-7.912,3.806l-4.375-1.304l-6.759,2.682 M813.318,759.142l5.484,14.391 M800.859,765.699l3.334,12.871
			 M770.352,780.083l6.325,14.129 M785.01,773.887l5.33,11.484 M824.141,771.678l6.826,21.976 M816.951,574.496
			c-1.537-2.951-11.848-7.927-24.847-1.677c-4.641,2.23-17.805,2.033-17.805,2.033 M565.459,452.05 M564.983,515.847
			c0.812,6.987-6.076,25.908-9.11,32.191 M620.805,597.134l11.311,20.671 M642.916,611.194c-1.919-7.023,0.611-14.482-5.399-16.418
			c-6.009-1.935-28.363-4.981-28.363-4.981 M618.014,637.071l19.339-12.135 M624.918,630.914l-3.098-5.321 M580.504,567.98
			c14.304,2.206,23.421-3.881,27.819-3.158c4.399,0.724,10.507,0.342,10.507,0.342 M576.062,594.521
			c3.994-2.771,3.563-5.685,14.021-4.185c10.457,1.499,15.914,3.416,15.914,3.416l-1.625-13.974 M594.819,609.344l26.588-13.351
			 M606.532,620.456l19.794-9.8 M602.401,613.36l21.502-10.905 M713.941,607.698l7.433-5.56l-0.82-33.093 M709.135,603.482
			l-6.896-7.185 M732.46,562.471l16.557,14.46 M751.763,603.705l3.951,24.493 M736.506,624.094l-3.236-15.188 M761.675,631.293
			c3.529,8.235,0.641,11.042,3.21,15.767c2.57,4.724,8.326,25.794,8.326,25.794 M764.885,647.06l34.896-13.37 M766.535,607.956
			l23.949-3.284 M772.307,569.566l0.983,22.656 M756.254,576.005l1.397,12.808 M784.252,575.174l-0.225,11.884 M789.37,598.254
			c4.246-2.182,25.133-11.656,27.117-12.751 M847.971,587.394l-16.553-1.407c-2.813,1.068-6.169,1.83-6.169,1.83 M847.166,586.789
			l11.377-7.173 M786.291,566.249c0,0,12.253,11.419,14.754,11.21c2.501-0.208,51.196-12.55,51.196-12.55 M774.949,592.275
			c0,0,26.755-10.733,28.149-10.978c1.395-0.245,6.242-3.568,8.405-2.339c2.164,1.231,18.61-1.425,26.002,0.555
			c7.392,1.98,23.021-0.994,32.171-1.276c9.147-0.283,13.393-2.466,14.37-5.916 M831.524,570.327l19.858,1.805l-13.878,7.381
			 M863.951,562.968c6.825,2.252,15.975,1.969,15.975,1.969 M880.289,562.918l15.45-5.299 M861.745,589.001
			c3.078-0.77,9.081-5.216,14.887-5.028c5.808,0.188,18.106-2.603,18.106-2.603 M867.626,587.452l1.342,7.585 M886.447,594.154
			l2.771,26.195 M868.027,597.617l4.395,27.118 M885.96,638.517c9.734,5.537,33.479,0.506,33.479,0.506 M857.085,548.533
			l38.888-16.142c6.489,3.691,9.708,9.452,16.654,12.144c-0.628-4.807-4.149-6.661-3.96-11.151c0.049-1.159,1.203-2.281,2.31-2.246
			c4.838,0.158,2.383,5.878,6.342,7.168c3.823,1.284,5.55-0.255,8.825,0.866c4.638,1.601,6.107,6.145,10.163,8.452l3.319,0.107
			l0.193-4.635c-2.744-10.386-18.31-5.669-19.247-16.288l4.978,0.161l6.439,4.851c0.16-3.767,0.156-6.957,0.392-9.27"/>
		<path i:knockout="Off" fill="none" stroke="#FFFFFF" stroke-width="3.118" stroke-linejoin="round" stroke-miterlimit="3.864" d="
			M935.659,654.923l15.972-11.084 M1012.437,606.945l3.061,19.36l-1.387-6.542 M1013.269,620.024l-8.682,2.329l1.681,6.146
			 M1029.333,629.683c-0.156,3.766-2.098,13.709,1.455,21.367 M1016.477,632.602c0,0,7.354,16.047,3.708,17.088 M1006.646,635.908
			c0.562,3.064,6.219,13.399,6.219,13.399 M1057.076,632.324c-0.649,2.3-5.222,11.578-5.222,11.578 M1003.256,653.927
			c0,0,11.364-6.883,13.541-5.942c2.176,0.941,3.842,7.376,8.915,5.22c1.062-0.451,2.731-1.198,4.706-2.102
			c7.46-3.41,19.298-9.011,19.298-9.011l5.008,5.964 M1031.605,651.366l2.712,7.919 M917.315,669.701l12.687,14.335
			 M966.802,572.978c4.904-1.436,7.918-3.948,11.328-6.013c6.817-4.13,16.501-3.96,24.623-6.162
			c8.819-2.325,13.672-12.32,23.764-11.992c2.35,0.076,3.404,4.607,4.154,6.516 M1002.176,561.363
			c1.172,1.779,2.601,4.001,2.472,7.042c-0.066,1.593-2.984,5.124-3.611,6.844c-1.572,4.445-0.621,11.437-2.343,16.167
			c-1.246,3.296-10.653,3.134-14.548,3.588 M789.351,789.112l8.106,31.008 M558.252,911.845l-18.551,19.702 M556.642,910.633
			l-4.537-10.59 M588.877,920.961l8.236,14.77 M618.413,903.355l8.311,13.032 M716.537,861.289
			c16.672-14.54,46.542-26.911,56.642-30.064 M720.359,862.576l15.068,10.352 M714.634,867.031
			c4.131,7.097,6.318,7.747,13.751,2.188 M739.358,819.105l14.652,20.198 M754.015,820.844l6.139,14.598 M674.506,938.822
			c15.174-5.309,31-12.916,31.52,1.022 M698.602,932.062c2.432-5.141,21.893-20.174,30.48-26.854
			c8.588-6.684,25.544-14.834,16.559-24.988 M756.514,871.871l5.017,12.345 M761.157,866.8l14.556,22.519l-27.56,10.127
			 M769.843,857.801l10.733,21.232l9.074,21.179 M774.917,855.646l7.717,0.831l20.458,40.11 M785.839,846.138l20.898,29.685
			c0,0,11.955-7.734,22.03-10.307c10.076-2.574,30.154-5.983,30.154-5.983 M811.268,860.307l-7.782-12.437l16.5-10.485
			 M815.767,819.264c0.162,9.287,5.032,25.107,8.658,31.025 M823.053,817.18l21.393,44.203l4.562,10.009 M831.387,829.633
			l18.713-10.414 M758.668,886.444l2.472,7.043 M770.736,889.156l5.447,15.26 M814.707,857.517l3.309,13.452l6.603,14.135
			 M826.084,850.345l14.408,25.993 M682.226,900.205c-7.506,7.299-16.623,13.385-22.225,14.943 M864.313,813.845l-5.809,4.363
			l9.848,27.708 M881.653,806.32c0,0-7.459,6.139-5.394,9.687c2.066,3.548,0.286,6.39-3.634,7.423s-11.808,4.258-11.808,4.258
			 M872.626,823.43l4.105,7.676 M890.514,898.266l10.847-7.771 M894.594,906.52l13.688-9.418 M900.431,912.51l13.111-8.857
			 M928.293,882.088c16.055,13.283,45.434,12.495,55.103,6.429 M919.689,915.454l11.171,10.806 M940.556,919.615
			c0,0-3.148-4.166-0.212-8.132c2.938-3.964,14.313-11.136,11.916-19.917 M923.656,913.263l26.626-14.218"/>
		<path i:knockout="Off" fill="none" stroke="#FFFFFF" stroke-width="3.118" stroke-linejoin="round" stroke-miterlimit="3.864" d="
			M1071.808,735.337c0,0,3.002,7.638,0.545,13.36c-2.457,5.721-3.945,12.1-1.854,15.068 M1041.966,852.132l12.636,15.492
			 M1027.197,860.934l11.213,22.987 M1049.317,861.652l-18.592,7.518 M1091.261,878.095c0,0,20.494-13.257,24.365-13.13
			c3.871,0.125,11.182-2.54,17.939-5.221 M1140.821,832.135 M1104.272,871.558l5.115,10.028l18.158-10.436 M966.001,907.096
			c0,0,2.424,8.201,5.789,7.149c3.367-1.051,16.232-4.113,16.232-4.113 M1000.153,924.447c-7.798,14.25-38.872,28.904-46.713,30.971
			 M1045.392,949.513c0,0-4.168-6.224-6.957-5.737c-2.789,0.491-6.408,0.955-9.149,0.286c-2.739-0.671-23.096-18.258-23.096-18.258
			 M982.882,940.132l24.33,0.789 M1080.864,638.752c3.873,0.125,9.312-3.755,11.398,0.786c2.039,4.44,3.769,7.248,5.306,10.198
			c1.536,2.951-4.985,13.181-4.985,13.181 M1125.526,511.997"/>
		<path i:knockout="Off" fill="none" stroke="#FFFFFF" stroke-width="3.118" stroke-linejoin="round" stroke-miterlimit="3.864" d="
			M948.372,773.678c6.771,10.084,8.934,11.313,12.821,24.201 M806.866,590.411l5.806,19.912 M1095.947,661.866l6.548-10.809
			 M590.377,599.772c2.249-0.797,3.95-1.757,6.577-1.671c2.903,0.094,6.28,2.088,7.187,3.569 M879.682,570.73
			c-8.822-0.866-22.302,3.627-23.367-3.949 M877.858,548.336c-2.132,4.573-29.883,12.664-33.021,14.882 M795.071,811.05
			c12.459-6.556,30.306-16.129,49.082-14.938 M716.432,837.504l7.875,16.789 M723.072,831.047l11.807,15.469"/>
		<path i:knockout="Off" fill="none" stroke="#FFFFFF" stroke-width="3.118" stroke-linejoin="round" stroke-miterlimit="3.864" d="
			M732.433,891.392l3.842,7.376 M850.335,817.941l10.284-7.434 M845.978,812.179l-10.16,4.489 M867.854,869.929l5.732-7.263
			 M873.278,873.763l5.734-7.263"/>
		<path i:knockout="Off" fill="none" stroke="#FFFFFF" stroke-width="3.118" stroke-linejoin="round" stroke-miterlimit="3.864" d="
			M1070.142,893.072c6.391,6.01,13.271,0.432,19.588,8.178 M692.342,871.836c5.481-2.291,15.272-3.032,17.303-3.318 M697.505,885.05
			c-15.422,6.552-32.196,5.3-42.205,3.216 M609.926,910.77l7.12,11.65 M570.505,903.845l6.859,12.917l-11.081,7.399
			 M910.814,915.748l10.403,16.001c0,0,22.2-14.364,25.014-15.431c2.814-1.07,11.107-0.802,14.021-4.187
			c2.912-3.387,19.15-20.843,23.144-23.615 M910.814,915.748l10.403,16.001c0,0,22.2-14.364,25.014-15.431
			c2.814-1.07,11.107-0.802,14.021-4.187c2.912-3.387,19.15-20.843,23.144-23.615c3.993-2.771,38.979-24.838,38.979-24.838
			 M1114.987,755.301l11.725-2.229 M916.943,909.668l17.979-12.758 M1101.077,672.867l41.633-2.42"/>
		<path i:knockout="Off" fill="none" stroke="#FFFFFF" stroke-width="6" stroke-miterlimit="3.864" d="M931.417,689.883
			c2.666,2.405,22.739,25.392,30.568,36.668c7.832,11.277,58.197,90.648,58.197,90.648"/>
		<path i:knockout="Off" fill="none" stroke="#FFFFFF" stroke-width="10.772" stroke-linecap="round" stroke-miterlimit="3.864" d="
			M758.079,795.348l24.589,47.206"/>
		
			<path i:knockout="Off" fill="none" stroke="#FFFFFF" stroke-width="10.772" stroke-linejoin="round" stroke-miterlimit="3.864" d="
			M924.179,782.756l39.928-27.711"/>
		<path i:knockout="Off" fill="none" stroke="#FFFFFF" stroke-width="10.772" stroke-miterlimit="3.864" d="M851.699,584.325
			l3.236,15.188 M647.719,906.171l-4.317-15.804 M632.235,852.607l4.314,17.418"/>
		<path i:knockout="Off" fill="none" stroke="#FFFFFF" stroke-width="6" stroke-miterlimit="3.864" d="M908.897,705.22
			c0,0-20.938,17.188-31.737,23.798c-10.8,6.613-43.076,23.548-43.076,23.548"/>
		<path i:knockout="Off" fill="none" stroke="#FFFFFF" stroke-linejoin="round" stroke-miterlimit="3.864" d="M535.782,932.578
			c-5.715,7.501-14.864,7.787-22.177,13.784c-5.305,4.324-8.985,16.097-9.37,25.222c-0.306,7.242,6.888,10.665,15.043,10.93
			c3.871,0.127,6.663-3.698,8.539-5.522c3.031-2.948,6.981-4.705,12.938-4.802c8.452-0.161,17.938-1.883,23.974-3.864
			c10.803-3.421,30.904-4.071,40.278-9.713c14.774-8.948,20.833-18.034,40.816-22.46c4.329-0.877,17.817-2.323,20.176-5.728
			c2.653-3.83,2.123-10.954,6.384-20.097 M631.7,916.55c-0.429,3.612-1.897,5.596-2.049,9.216
			c-0.214,5.067,3.713,10.417,4.968,13.504"/>
		
			<path i:knockout="Off" fill="#6BBF34" stroke="#FFFFFF" stroke-width="1.5" stroke-linejoin="round" stroke-miterlimit="3.864" d="
			M625.594,694.54l-13.98-5.524l4.622,19.479l-9.679,21.548l17.241-0.076l30.512-13.583l4.842-14.418l-33.163-9.63l4.009,34.03
			 M616.236,708.495l11.778,0.383"/>
		<path i:knockout="Off" fill="#676767" stroke="#202038" d="M894.682,684.991c7.081,1.239,13.512,11.381,15.392,15.185l5.383-2.651
			c-0.33-0.67-8.202-16.425-19.741-18.443L894.682,684.991z"/>
		<path i:knockout="Off" display="none" fill="none" stroke="#FFFFFF" stroke-width="1.5" stroke-miterlimit="3.864" d="
			M905.083,789.095c2.544,5.305,16.1,12.126,7.294,24.022"/>
		<path i:knockout="Off" fill="none" stroke="#FFFFFF" stroke-linejoin="round" stroke-miterlimit="3.864" d="M1144.269,835.729
			 M530.176,973.586c-4.419-6.815-4.542-20.307-6.016-28.041l0.196-4.634"/>
		<path i:knockout="Off" fill="none" stroke="#FFFFFF" stroke-linejoin="round" stroke-miterlimit="3.864" d="M1111.925,571.888
			 M1134.899,552.33l4.992,12.924"/>
		<path i:knockout="Off" fill="none" stroke="#FFFFFF" stroke-width="1.5" stroke-linejoin="round" stroke-miterlimit="3.864" d="
			M969.043,782.473l-10.827,7.188"/>
		<path i:knockout="Off" fill="none" stroke="#FFFFFF" stroke-linejoin="round" stroke-miterlimit="3.864" d="M1087.47,902.337
			c1.878-5.161,11.67-14.125,11.67-14.125l-6.244-9.481"/>
		<path i:knockout="Off" fill="none" stroke="#1BB137" stroke-width="0.5" stroke-miterlimit="3.864" d="M1036.677,758.01
			l4.197-3.298"/>
		<path i:knockout="Off" fill="#676767" stroke="#202038" d="M1014.111,672.919l-0.235,0.139l-37.566,32.613l3.934,4.531
			c0,0,36.743-31.899,37.152-32.254c0.469-0.276,62.229-36.702,62.229-36.702l-3.049-5.168L1014.111,672.919z"/>
		<path i:knockout="Off" fill="none" stroke="#676767" stroke-width="6" stroke-miterlimit="3.864" d="M1085.12,931.922
			c1.836-0.811,15.059-2.555,16.007-6.947"/>
		<path i:knockout="Off" fill="none" stroke="#676767" stroke-width="5.102" stroke-linejoin="round" stroke-miterlimit="3.864" d="
			M1043.776,954.974c9.953,0.321,41.039-2.833,52.921-8.829c3.983-2.01,12.423-7.058,30.177-18.35"/>
		<path i:knockout="Off" fill="#676767" stroke="#202038" d="M1142.214,663.286c0.011,0.084,1.102,8.525-1.493,13.902
			c-1.446,2.995-13.951,8.121-21.423,11.185c-5.713,2.342-11.109,4.553-14.71,6.603c-7.43,4.228-23.144,19.355-34.617,30.402
			c-3.825,3.683-7.129,6.863-9.062,8.599c-7.332,6.584-42.529,34.757-42.884,35.04l3.748,4.686
			c1.454-1.164,35.686-28.564,43.144-35.261c2.011-1.805,5.35-5.02,9.216-8.741c10.61-10.216,26.646-25.654,33.422-29.51
			c3.267-1.858,8.489-4,14.019-6.266c13.753-5.638,22.269-9.402,24.551-14.128c3.388-7.018,2.092-16.899,2.035-17.316
			L1142.214,663.286z"/>
		<path i:knockout="Off" fill="#676767" stroke="#202038" d="M1027.832,597.67l-6.477,1.449
			c-10.422,2.507-37.526,7.385-37.799,7.434l-2.88,0.518l0.445,2.892c0.117,0.765,2.803,18.083,5.312,26.33
			c-2.633,2.8-15.699,10.055-20.946,11.514c-10.586,2.944-19.548,15.796-24.006,25.909l5.49,2.42
			c4.239-9.617,12.106-20.319,20.123-22.548c4.763-1.324,22.323-9.884,24.999-14.922c0.406-0.765,0.544-1.462,0.544-2.054
			c0-0.469-0.086-0.873-0.193-1.193c-1.86-5.545-4.006-17.88-4.929-23.484c7.339-1.338,26.579-4.896,35.241-6.979l6.348-1.42
			c11.913-2.587,29.918-6.497,40.171-13.823l-3.488-4.882C1056.542,591.436,1039.265,595.188,1027.832,597.67z"/>
		<path i:knockout="Off" fill="#676767" stroke="#202038" d="M1054.153,591.023l65.632,150.64l5.5-2.396l-65.632-150.64
			L1054.153,591.023z"/>
		<path i:knockout="Off" fill="#676767" stroke="#202038" d="M580.541,602.241c8.089,6.846,25.514,29.296,22.393,36.753
			c-1.433,3.426-3.425,6.779-5.352,10.022c-3.882,6.536-7.549,12.709-6.521,19.079l1.211,6.894
			c1.819,10.068,4.569,25.283,4.256,32.709c-0.136,3.226-1.931,7.146-3.667,10.937c-3.139,6.852-6.696,14.618-0.286,19.787
			c9.684,7.807,66.22-0.322,70.679-1.246c20.029-4.149,34.714-9.854,41.277-24.204c4.958-10.844,13.02-14.27,22.272-17.343
			c4.499-1.494,15.173-5.606,27.532-10.369c14.11-5.437,30.103-11.6,40.6-15.283l0.866-0.304
			c15.232-5.346,61.4-21.546,68.415-19.956c3.433,1.981,18.909,22.306,32.053,41.043c0.104,0.169,11.869,19.474,11.869,19.474
			s37.071-31.276,41.326-34.866c3.318,4.317,26.22,34.117,26.359,34.3c0.134,0.206,55.52,86.402,55.52,86.402l5.041-3.252
			l-55.652-86.611l-30.336-39.475c0,0-36.102,30.458-40.777,34.402c-2.447-4.016-8.328-13.665-8.328-13.665l-0.056-0.079
			c-13.391-19.093-30.391-42.13-35.335-43.456c-7.004-1.875-33.882,6.669-72.085,20.077l-0.866,0.304
			c-10.583,3.713-26.621,9.894-40.771,15.346c-12.288,4.735-22.9,8.824-27.266,10.274c-10.218,3.394-19.882,7.518-25.837,20.541
			c-4.781,10.454-15.166,16.293-37.038,20.824c-14.478,2.999-60.16,6.913-65.696,2.45c-2.592-2.09-0.983-6.161,1.975-12.618
			c1.977-4.316,4.022-8.78,4.208-13.183c0.34-8.09-2.48-23.699-4.347-34.028l-1.192-6.781c-0.681-4.222,2.446-9.486,5.756-15.06
			c2.032-3.42,4.132-6.957,5.728-10.771c5.679-13.57-20.341-40.508-24.052-43.649L580.541,602.241z"/>
		<path i:knockout="Off" fill="none" stroke="#676767" stroke-width="6" stroke-miterlimit="3.864" d="M570.85,586.812
			c15.151-4.73,46.489-13.252,56.438-12.091c13.775,1.607,23.07,17.572,26.525,27.545c3.456,9.974,12.416,20.708,31.844,19.597
			c19.428-1.11,30.756-7.123,35.033-3.504c4.277,3.62,15.327,17.322,46.083,10.198c16.581-3.841,77.64-29.386,88.162-29.044"/>
		<path i:knockout="Off" fill="none" stroke="#676767" stroke-width="8" stroke-miterlimit="3.864" d="M854.32,597.166l9.983,49.35"
			/>
		<path i:knockout="Off" fill="none" stroke="#FFFFFF" stroke-width="5.102" stroke-linejoin="round" stroke-miterlimit="3.864" d="
			M877.899,882.193c5.271-6.79,1.4-6.918,10.012-14.178c2.249-1.898,9.676-7.388,19.424-14.463"/>
		<path i:knockout="Off" fill="none" stroke="#FFFAAC" stroke-width="6" stroke-miterlimit="3.864" d="M1119.039,931.557
			 M1126.802,929.82"/>
		<path i:knockout="Off" fill="none" stroke="#676767" stroke-width="2.835" stroke-linejoin="round" stroke-miterlimit="3.864" d="
			M1129.681,930.661c-1.172-1.779-4.633-23.171-5.562-26.574c-1.08-3.952-4.566-8.271-12.131-7.792
			c-7.879,0.498-13.857,3.611-17.217,11.043c-3.953,8.752-4.577,17.922-10.086,23.834"/>
		<path i:knockout="Off" fill="none" stroke="#676767" stroke-width="4.252" stroke-linejoin="round" stroke-miterlimit="3.864" d="
			M1126.214,931.045c-3.711-6.2-10.697-22.388-11.623-29.466 M1118.821,932.982c-1.94-3.252-10.168-21.504-15.724-21.104
			c-7.046,0.508-10.854,12.975-7.321,16.006c3.342,2.864,7.737-2.801,6.678-7.324c-0.82-3.508-2.461-15.103-2.461-15.103"/>
		<path i:knockout="Off" fill="#676767" stroke="#202038" d="M859.693,851.328l-1.25,0.848l-0.714,16.975l1.242,0.948
			c0.121,0.093,12.189,9.349,16.922,16.145c9.902,14.215,33.797,49.095,41.809,65.913c2.505,5.261,5.773,7.03,13.451,7.279
			c10.911,0.355,104.006,0.782,115.999-4.028l0.137-0.055l40.646-21.164l-2.771-5.322c0,0-39.972,20.813-40.332,21.001
			c-9.832,3.772-93.956,4.208-113.483,3.572c-6.491-0.211-7.072-1.432-8.229-3.863c-8.203-17.22-32.315-52.426-42.302-66.763
			c-4.368-6.27-13.615-13.86-16.963-16.513c0.09-2.139,0.368-8.753,0.456-10.854c2.33-1.58,34.68-23.511,34.68-23.511l-3.367-4.967
			L859.693,851.328z"/>
		<path i:knockout="Off" fill="#676767" stroke="#202038" d="M1106.62,902.824c2.016,9.975,9.355,25.695,12.725,31.326l3.648-2.184
			c-3.149-5.263-10.312-20.617-12.205-29.984L1106.62,902.824z"/>
		<path i:knockout="Off" fill="#FFFFFF" stroke="#676767" stroke-width="4" stroke-linejoin="round" stroke-miterlimit="3.864" d="
			M1030.102,956.166c0.158-3.679,3.13-6.57,6.642-6.457c3.513,0.115,6.233,3.19,6.078,6.869c-0.154,3.68-3.127,6.571-6.64,6.457
			C1032.671,962.92,1029.947,959.845,1030.102,956.166z"/>
		<path i:knockout="Off" fill="#FFFFFF" stroke="#676767" stroke-width="4" stroke-linejoin="round" stroke-miterlimit="3.864" d="
			M1081.231,957.641c2.809,0.092,5.188-2.221,5.311-5.166c0.125-2.942-2.051-5.404-4.861-5.494
			c-2.811-0.092-5.186,2.223-5.311,5.165C1076.245,955.091,1078.423,957.549,1081.231,957.641z"/>
		<path i:knockout="Off" fill="none" stroke="#FFFAAC" stroke-width="7.937" stroke-miterlimit="3.864" d="M1092.294,665.877"/>
		<path i:knockout="Off" fill="#676767" stroke="#202038" d="M862.219,713.886l-4.124,2.693
			c-8.135,5.336-19.275,12.645-27.137,15.722c-3.533,1.385-5.782,3.416-6.688,6.039c-1.394,4.041,0.867,7.878,2.22,10.17
			l0.583,1.037c0,0.001,0.536,1.375,0.536,1.375c3.184,8.356,6.859,16.199,12.153,16.992c4.218,0.63,10.925-1.711,14.755-3.258
			c3.14,5.968,11.021,20.933,13.092,24.742c1.301,2.392,3.313,4.058,5.444,5.821c2.836,2.348,5.769,4.776,7.592,9.364
			c1.662,4.177,4.266,8.22,6.783,12.13c3.042,4.723,5.915,9.184,6.945,13.442c4.337,17.92,22.309,42.531,23.071,43.57l1.741,2.371
			l2.404-1.694c0.685-0.481,68.625-48.34,84.354-58.697c1.374-0.89,5.216-3.628,11.03-7.773
			c22.312-15.908,74.564-53.162,90.79-58.763c3.288-1.136,9.978-2.505,19.882-4.07l-2.312-5.873
			c-10.395,1.643-15.858,3.004-19.528,4.271c-17.045,5.883-67.884,42.13-92.315,59.549c-5.542,3.951-9.546,6.806-10.827,7.635
			c-14.125,9.302-69.784,48.439-82.083,57.095c-4.577-6.577-17.066-25.361-20.375-39.031c-1.269-5.244-4.555-10.347-7.732-15.28
			c-2.363-3.669-4.807-7.463-6.253-11.098c-2.389-6.014-6.244-9.205-9.341-11.769c-1.745-1.445-3.252-2.692-4-4.066
			c-2.528-4.651-14.221-26.89-14.338-27.114l-1.317-2.505l-2.578,1.17c-4.124,1.87-11.193,4.315-13.996,3.897
			c-0.602-0.101-2.921-1.349-7.434-13.194l-0.628-1.602l-0.93-1.723c-0.825-1.399-2.207-3.742-1.716-5.165
			c0.38-1.103,1.952-1.919,3.204-2.409c8.442-3.305,19.885-10.811,28.239-16.292l4.093-2.673
			c8.719-5.642,30.61-27.936,31.538-28.882l-4.285-4.2C892.509,686.068,870.383,708.604,862.219,713.886z"/>
		<path i:knockout="Off" fill="none" stroke="#FFFAAC" stroke-width="2" stroke-linejoin="round" stroke-miterlimit="3.864" d="
			M1095.128,913.795l-4.01,11.679"/>
		<path i:knockout="Off" fill="none" stroke="#FFFAAC" stroke-width="1.5" stroke-linejoin="round" stroke-miterlimit="3.864" d="
			M591.054,738.007c1.813,2.959,5.659,3.664,10.071,4.097"/>
		<path i:knockout="Off" fill="none" stroke="#F49AB8" stroke-width="2" stroke-linejoin="round" stroke-miterlimit="3.864" d="
			M1088.868,901.945c2.02,2.475,4.875,1.562,2.421,7.281c0,0-2.599,5.727-1.108,6.5c1.488,0.773,8.09,5.568,8.09,5.568
			s4.598-7.249,6.802-3.695c2.202,3.554,2.813,5.458,2.813,5.458"/>
		<path i:knockout="Off" fill="none" stroke="#FFFFFF" stroke-width="1.5" stroke-linejoin="round" stroke-miterlimit="3.864" d="
			M1088.868,901.945c2.02,2.475,4.875,1.562,2.421,7.281c0,0-2.599,5.727-1.108,6.5c1.488,0.773,8.09,5.568,8.09,5.568
			s4.598-7.249,6.802-3.695c2.202,3.554,2.813,5.458,2.813,5.458"/>
		<path i:knockout="Off" fill="none" stroke="#F2F1F7" stroke-width="10.772" stroke-miterlimit="3.864" d="M913.061,704.949
			l37.53,55.459"/>
		<path i:knockout="Off" fill="none" stroke="#F2F1F7" stroke-width="6" stroke-linejoin="round" stroke-miterlimit="3.864" d="
			M878.313,754.233l18.521-5.896"/>
		
			<path i:knockout="Off" fill="none" stroke="#F2F1F7" stroke-width="10.772" stroke-linejoin="round" stroke-miterlimit="3.864" d="
			M946.729,766.664l25.074-16.881"/>
		<path i:knockout="Off" fill="none" stroke="#F2F1F7" stroke-width="5.102" stroke-linejoin="round" stroke-miterlimit="3.864" d="
			M665.412,571.679c8.046,2.945,15.854,5.78,17.677,6.013c6.059,0.776,17.601-4.389,17.601-4.389 M620.399,559.979
			c8.042,1.396,18.187,3.141,24.466,4.662 M805.287,490c3.208,2.715,6.969,5.448,13.052,5.645l20.005-1.671
			c10.885,1.224,12.521,8.383,23.363,10.62l11.059,0.359c12.113-1.637,22.85-3.464,35.612-4.065 M765.879,492.202
			c23.363,0.759,44.273-5.96,63-10.138c7.742,0.251,14.654,0.475,21.566,0.7c12.719,0.413,21.58-2.925,34.481-3.521l23.63,4.248
			l18.321-1.146 M990.583,639.303c9.092-5.506,36.331-12.816,42.639-13.119c14.426-0.692,21.85,7.09,37.576,1.8 M896.859,682.09
			c5.761-5.326,20.83-14.698,27.528-15.931c6.695-1.233,16.747-3.227,21.369,5.335 M935.035,525.248
			c4.037,2.741,19.794,9.924,28.929,9.931c9.138,0.007,13.646-1.878,19.888-5.446c6.241-3.568,27.413-6.651,31.923-8.536
			c4.511-1.884,11.125-7.76,15.875-8.767c9.498-2.012,27.666,0.257,37.978-1.087 M835.783,764.803c0,0-25.445,12.518-33.358,16.321
			s-33.433,18.059-40.288,23.058 M667.053,577.171l6.36-19.517 M657.646,605.794c11.331-5.23,20.213-9.129,20.213-9.129
			l-14.912-27.168 M663.566,556.482c6.441,2.021,13.607,4.687,16.914,4.301c3.895-0.454,9.522-2.591,9.522-2.591 M1119.28,791.41
			l21.066-7.15"/>
		<path i:knockout="Off" fill-rule="evenodd" clip-rule="evenodd" fill="#F2F1F7" d="M664.977,554.189l-0.785,5.485l-7.116-1.971
			L664.977,554.189"/>
		<path i:knockout="Off" fill-rule="evenodd" clip-rule="evenodd" fill="#DFDBD7" stroke="#DFDBD7" stroke-miterlimit="3.864" d="
			M1125.014,952.244"/>
		<path i:knockout="Off" fill-rule="evenodd" clip-rule="evenodd" fill="#FFFAAC" stroke="#676767" d="M1092.881,926.095
			l-2.306-2.741c-1.312,1.554-4.478,9.229-4.889,9.486C1088.524,931.191,1091.802,926.979,1092.881,926.095z"/>
		<path i:knockout="Off" fill="none" stroke="#FFFFFF" stroke-width="2" stroke-miterlimit="3.864" d="M801.685,483.501
			c-9.195-1.894-15.515-6.305-22.306-9.425c6.276-1.101,12.55,1.133,18.752,1.769l12.767-0.745l13.272,0.43
			c9.333,1.899,15.28-1.245,22.265-2.758"/>
		<path i:knockout="Off" fill="none" stroke="#A5A5A5" stroke-width="2" stroke-miterlimit="3.864" stroke-dasharray="1 1" d="
			M779.378,474.076c6.791,3.121,13.111,7.532,22.306,9.425l-1.708-7.764l-1.846,0.107
			C791.929,475.209,785.655,472.975,779.378,474.076z"/>
		<path i:knockout="Off" fill="none" stroke="#A5A5A5" stroke-width="2" stroke-miterlimit="3.864" stroke-dasharray="1 1" d="
			M799.977,475.738l10.921-0.638l13.272,0.43c9.333,1.899,15.28-1.245,22.265-2.758"/>
		
			<path i:knockout="Off" fill="none" stroke="#A5A5A5" stroke-width="2" stroke-linejoin="round" stroke-miterlimit="3.864" stroke-dasharray="2 2" d="
			M886.651,544.665c-9.904,10.58-24.658,20.928-31.042,40.179"/>
		<path i:knockout="Off" fill="none" stroke="#202038" stroke-miterlimit="3.864" d="M793.548,623.915l7.45-2.659"/>
		<path i:knockout="Off" fill="none" stroke="#202038" d="M700.091,483.105l1.918,7.024 M661.204,479.522l-2.628,9.777
			 M733.501,623.127c1.899,0.932,2.716,1.248,5.18,1.908 M751.641,626.325l7.224-0.635 M809.812,573.104l8.103-1.768
			 M753.81,581.438l5.111-3.025 M754.744,585.528l5.242,0.461 M770.142,588.059l5.469,1.628 M780.385,588.101l6.482-2.69
			 M785.591,569.706l7.814-1.486 M769.334,574.399l6.458-2.111 M807.612,572.742l-4.428,6.527 M710.656,613.393l7.599-2.944
			 M741.24,682.55l19.685-7.193 M769.088,672.141l5.628-2.138 M801.429,660.254l3.668-1.622 M865.697,593.771l6.144-1.251
			 M890.374,579.779c2.057,0.502,3.415,1.125,5.482,1.338l-1.758,2.264 M883.224,558.953l1.14,5.838 M891.113,555.728l0.825,6.699
			 M876.693,562.801l2.087,9.641 M875.601,562.477l-11.771,3.388 M938.55,520.721l-4.515,8.555 M907.802,494.778l2.312,10.808
			 M926.556,476.823l0.63,11.333 M872.002,641.255l5.221-5.632 M899.577,643.89l0.666,10.464 M945.822,663.375l-5.392,9.687
			 M896.003,678.308l9.15,4.05 M920.985,700.856l-12.051,10.051 M993.002,634.45c0.721,2.634,0.058,5.223-3.671,8.292
			 M993.002,634.45l3.338,6.201 M1012.687,627.257l5.591-1.268 M1064.009,624.863l2.949,8.797 M1081.466,636.165l2.44,5.786
			 M1005.683,599.951l8.104-1.768 M998.247,575.738l7.071-3.541 M1043.747,540.669l7.461,6.913 M1038.837,532.388l9.057-4.638"/>
		<path i:knockout="Off" fill="none" stroke="#202038" stroke-miterlimit="3.864" d="M569.578,448.498 M830.977,760.587
			c1.5,3.817,5.2,8,9.334,8.425"/>
		<path i:knockout="Off" fill="none" stroke="#202038" stroke-linejoin="round" stroke-miterlimit="3.864" d="M1133.306,708.326
			l3.229,8.807"/>
		<path i:knockout="Off" fill="none" stroke="#F49AB8" stroke-miterlimit="3.864" d="M566.784,591.32"/>
		<path i:knockout="Off" fill="none" stroke="#202038" stroke-linejoin="round" stroke-miterlimit="3.864" d="M860.647,595.347
			l0.008,6.381 M715.757,636.235l1.013-9.066 M625.663,613.244l-8.717-16.525"/>
		<path i:knockout="Off" fill="none" stroke="#F49AB8" stroke-miterlimit="3.864" d="M1097.149,923.818
			c0.195,1.006,1.359,1.669,2.018,0.191"/>
		<path i:knockout="Off" fill="none" stroke="#202038" stroke-width="2" stroke-linejoin="round" stroke-miterlimit="3.864" d="
			M1087.47,902.337c1.878-5.161,11.67-14.125,11.67-14.125l-6.244-9.481"/>
		<path i:knockout="Off" fill="none" stroke="#F49AB8" stroke-miterlimit="3.864" d="M1137.384,972.148"/>
		
			<path i:knockout="Off" fill="#676767" stroke="#202038" stroke-width="0.5" stroke-linejoin="round" stroke-miterlimit="3.864" d="
			M1102.056,918.554c1.083,3.842,0.521,7.305-1.704,9.226c-1.804,1.558-5.687,1.407-6.136-2.264
			c-0.35-2.854,1.511-7.373,2.533-8.852c1.477-2.127,4.518-5.381,7.238-4.277"/>
		<path i:knockout="Off" fill="none" stroke="#202038" stroke-width="0.5" stroke-linejoin="round" stroke-miterlimit="3.864" d="
			M1107.841,911.02c1.793,3.439,4.143,6.805,4.797,7.696"/>
		<path i:knockout="Off" fill="none" stroke="#F49AB8" stroke-miterlimit="3.864" d="M1034.083,941.896l-0.761,4.905"/>
		<path i:knockout="Off" fill="none" stroke="#F49AB8" stroke-width="0.5" stroke-linejoin="round" stroke-miterlimit="3.864" d="
			M900.501,576.046c-2.49-0.08-2.791,0.49-4.148-0.135 M890.079,573.678l2.213,0.072"/>
		<path i:knockout="Off" fill="none" stroke="#202038" stroke-linejoin="round" stroke-miterlimit="3.864" d="M829.442,862.987
			l6.18-2.121"/>
		<path i:knockout="Off" fill="none" stroke="#202038" stroke-miterlimit="3.864" d="M840.616,860.482l6.206-1.675 M842.966,865.379
			l6.45-1.396 M845.55,870.819l4.975-2.783 M836.656,875.62l5.509-3.304 M832.143,867.439l6.462-1.668 M813.927,868.987l5.995-2.749
			 M819.922,866.238l1.784,6.219 M897.405,888.804l3.676,5.712 M903.103,897.194l3.353,4.956 M908.153,904.072l2.672,4.188
			 M930.524,922.326l2.981,5.319 M948.688,896.808l-5.694,8.394 M975.034,888.337l-1.336,6.3 M1019.614,856.916l-5.424,3.884
			 M1012.854,846.545l-5.426,3.885 M690.428,869.304l2.683,8.198 M710.758,866.086l-6.332,6.493"/>
		<path i:knockout="Off" fill="none" stroke="#F49AB8" stroke-linejoin="round" stroke-miterlimit="3.864" d="M617.382,908.129
			l5.388-3.017 M608.458,913.671l5.387-3.017"/>
		<path i:knockout="Off" fill="none" stroke="#202038" stroke-miterlimit="3.864" d="M1148.323,667.337 M1083.388,894.083
			l-1.902,5.739"/>
		<path i:knockout="Off" fill="none" stroke="#202038" stroke-width="0.992" stroke-linejoin="round" stroke-miterlimit="3.864" d="
			M1098.794,918.701c1.199-2.136,4.08-5.35,6.929-2.221 M1095.197,913.6c1.496-2.707,5.209-4.825,8.106-4.729"/>
		<path i:knockout="Off" fill="none" stroke="#202038" stroke-linejoin="round" stroke-miterlimit="3.864" d="M1095.348,913.441
			c-2.198,3.25-3.546,6.211-4.579,10.918c-0.434,1.985-1.209,3.252-2.111,4.844"/>
		<path i:knockout="Off" fill="none" stroke="#202038" stroke-width="0.8" stroke-miterlimit="3.864" d="M1121.256,927.391
			l3.566,6.429"/>
		<path i:knockout="Off" fill="none" stroke="#202038" stroke-miterlimit="3.864" d="M747.484,896.916l7.524,2.129 M740.9,892.205
			l7.524,2.131"/>
		
			<path i:knockout="Off" fill="none" stroke="#6BBF34" stroke-width="0.25" stroke-linejoin="round" stroke-miterlimit="3.864" stroke-dasharray="5.669 1.417" d="
			M1140.94,862.183c-2.75,1.843-4.967,3.505-6.523,4.944c-11.523,10.648-17.603,23.504-16.924,33.678 M1125.862,859.887
			c-14.436,14.037-21.215,30.348-20.971,44.279 M1125.987,932.208c9.812-5.097,14.006-16.95,12.318-38.275 M1123.635,926.716
			c9.124-6.278,10.669-16.67,9.931-34.096c-0.695-16.317,5.592-27.666,8.322-31.059"/>
		
			<path i:knockout="Off" fill="#676767" stroke="#202038" stroke-width="0.5" stroke-linejoin="round" stroke-miterlimit="3.864" d="
			M1118.818,895.628c4.319,2.604,6.278,5.423,7.95,11.714"/>
		<path i:knockout="Off" fill="none" stroke="#F49AB8" stroke-miterlimit="3.864" d="M1135.778,937.646"/>
		<path i:knockout="Off" fill="none" stroke="#202038" stroke-width="0.8" stroke-miterlimit="3.864" d="M1128.983,941.539
			l3.816,6.606"/>
		<path i:knockout="Off" fill="none" stroke="#202038" stroke-miterlimit="3.864" d="M1122.94,946.26l3.236,5.77 M1114.668,931.295
			l3.044,5.726"/>
		
			<path i:knockout="Off" fill="none" stroke="#6BBF34" stroke-width="0.25" stroke-miterlimit="3.864" stroke-dasharray="5.669 1.417" d="
			M1067.727,839.983c16.862,25.562,28.892,50.282,34.819,67.298 M1042.241,799.639c5.396,8.969,12.719,20.928,21.408,34.156
			 M1022.431,816.4c5.26,6.553,31.888,14.974,33.703,16.281c2.955,2.126-18.451-29.999-18.451-29.999 M1017.606,819.145
			c14.724,13.343,22.416,14.752,37.778,18.151c4.22,0.935,35.134,48.331,41.654,69.226"/>
		<path i:knockout="Off" fill="none" stroke="#00A8EB" stroke-width="0.25" stroke-miterlimit="3.864" d="M793.377,1037.631
			 M1024.933,689.231 M1024.198,706.646"/>
		<path i:knockout="Off" fill="none" stroke="#000000" stroke-width="0.25" stroke-miterlimit="3.864" d="M1014.197,859.191
			l4.492-3.32 M1013.548,858.156l4.494-3.32 M1012.899,857.119l4.493-3.32 M1012.252,856.08l4.491-3.317 M1010.956,854.01
			l4.491-3.318 M1010.307,852.975l4.493-3.321 M1009.659,851.939l4.49-3.322 M1009.01,850.902l4.492-3.32 M1008.36,849.865
			l4.494-3.32"/>
		<path i:knockout="Off" fill="none" stroke="#000000" stroke-miterlimit="3.864" d="M887.914,539.671
			c-2.358,3.404,1.967,5.865,5.358,4.235"/>
		<path i:knockout="Off" fill="none" stroke="#FFFFFF" stroke-width="1.5" stroke-linejoin="round" stroke-miterlimit="3.864" d="
			M838.808,607.69l5.892-1.838 M816.599,615.671l5.496-2.287 M826,652.089l5.855-1.836 M802.553,659.885l5.482-1.998"/>
		<path i:knockout="Off" fill="none" stroke="#FFFFFF" stroke-width="1.5" stroke-linejoin="round" stroke-miterlimit="3.864" d="
			M847.451,645.679l6.018-1.545"/>
		<path i:knockout="Off" fill="none" stroke="#A5A5A5" stroke-miterlimit="3.864" d="M862.515,787.425l3.295,0.688l6.025-5.026
			l1-4.028 M868.797,796.041l0.676-2.879l6.291-4.726l3.194,0.21"/>
		<path i:knockout="Off" fill="none" stroke="#FEEED7" stroke-width="4" stroke-linejoin="round" stroke-miterlimit="3.864" d="
			M782.579,831.529l2.822,5.312"/>
		<path i:knockout="Off" fill="none" stroke="#1BB137" stroke-width="0.5" stroke-miterlimit="3.864" d="M601.017,882.461
			l-4.584,2.663"/>
		<path i:knockout="Off" fill="#1BB137" d="M601.896,881.277c-0.936,0.214-1.581,0.284-2.367,0.391l1.33,2.552
			c0.171-0.247,0.907-1.181,1.579-1.9c0.721-0.771,1.406-1.411,1.877-1.77C603.775,880.778,602.897,881.045,601.896,881.277"/>
		
			<path i:knockout="Off" fill="#00A8EB" stroke="#00A8EB" stroke-width="0.25" stroke-linecap="round" stroke-miterlimit="3.864" d="
			M555.813,990.27l8.477-3.043l1.195,3.448c-1.768,1.72-2.109-1.7-3.732-0.122l-0.09,0.053c-1.769,1.719-2.082-1.701-3.707-0.121
			c-1.768,1.719-2.108-1.699-3.733-0.121"/>
		
			<path i:knockout="Off" fill="#00A8EB" stroke="#00A8EB" stroke-width="0.25" stroke-linecap="round" stroke-miterlimit="3.864" d="
			M566.583,989.841c0.028-0.651,0.553-1.162,1.173-1.142c0.622,0.02,1.103,0.564,1.075,1.213c-0.028,0.652-0.553,1.162-1.174,1.143
			C567.037,991.035,566.556,990.49,566.583,989.841z"/>
		<path i:knockout="Off" fill="none" stroke="#00A8EB" stroke-width="1.25" stroke-linecap="round" d="M564.064,987.654l3.73-1.473
			l4.377,2.898"/>
		<path i:knockout="Off" fill="#00A8EB" stroke="#00A8EB" stroke-width="0.5" stroke-miterlimit="3.864" d="M554.235,992.139
			c1.624-1.578,1.964,1.842,3.733,0.123"/>
		<path i:knockout="Off" fill="#00A8EB" stroke="#00A8EB" stroke-width="0.5" stroke-miterlimit="3.864" d="M557.943,992.26
			c1.624-1.577,1.964,1.842,3.733,0.123"/>
		<path i:knockout="Off" fill="#00A8EB" stroke="#00A8EB" stroke-width="0.5" stroke-miterlimit="3.864" d="M561.65,992.381
			c1.624-1.578,1.963,1.842,3.732,0.121"/>
		<path i:knockout="Off" fill="#00A8EB" stroke="#00A8EB" stroke-width="0.5" stroke-miterlimit="3.864" d="M554.167,993.762
			c1.623-1.58,1.965,1.84,3.733,0.121"/>
		<path i:knockout="Off" fill="#00A8EB" stroke="#00A8EB" stroke-width="0.5" stroke-miterlimit="3.864" d="M557.875,993.883
			c1.623-1.582,1.964,1.838,3.732,0.119"/>
		<path i:knockout="Off" fill="#00A8EB" stroke="#00A8EB" stroke-width="0.5" stroke-miterlimit="3.864" d="M561.581,994.002
			c1.624-1.58,1.964,1.84,3.733,0.121"/>
		<path i:knockout="Off" fill="#00A8EB" stroke="#00A8EB" stroke-width="0.5" stroke-miterlimit="3.864" d="M565.288,994.123
			c1.624-1.58,1.965,1.839,3.733,0.121"/>
		<path i:knockout="Off" fill="none" stroke="#1BB137" stroke-width="0.5" stroke-miterlimit="3.864" d="M1107.937,940.142
			l-4.585,2.665"/>
		<path i:knockout="Off" fill="#1BB137" d="M1107.78,941.9c0.17-0.246,0.906-1.181,1.578-1.898c0.721-0.771,1.405-1.41,1.877-1.77
			c-0.538,0.226-1.417,0.496-2.42,0.726c-0.826,0.19-1.431,0.267-2.102,0.354c-0.021,0.141-0.045,0.278-0.066,0.418L1107.78,941.9z"
			/>
		<path i:knockout="Off" fill="#1BB137" d="M1106.647,939.73c0.021-0.14,0.046-0.277,0.066-0.418
			c-0.087,0.012-0.174,0.024-0.264,0.037L1106.647,939.73z"/>
		<path i:knockout="Off" fill="none" stroke="#FFFFFF" stroke-width="0.25" stroke-miterlimit="3.864" d="M1043.96,696.499
			c0.168-3.983,0.525-15.709,3.721-12.705 M1043.96,696.499c-0.078-1.453,0.225-2.825,0.189-4.491
			c-0.045-2.176-1.735-8.096-1.735-8.096l-1.603,5.171 M1043.552,696.341c0.09-0.505,0.033-0.797,0.055-1.304
			c0.072-1.738-0.297-3.424-1.351-4.104c-0.806-0.524-1.221,1.058-1.565,1.046l0.213,1.521 M1044.569,691.878
			c0.249-2.603,2.41-4.625,3.24-4.6c0.207,0.008,0.312,2.467,0.446,2.543 M1045.847,694.466c4.435-0.146,5.357,4.235-0.486,4.916
			 M1040.914,694.538c-3.677,0.52-3.596,5.161,0.585,5.82 M1041.599,695.373c-3.992,4.047,8.161,3.455,4.676,0.731"/>
		<path i:knockout="Off" fill-rule="evenodd" clip-rule="evenodd" fill="#EEEEEE" d="M1083.646,900.444l2.015,2.154l0.655,2.806
			l1.286-1.582l3.036-3.732c0,0-0.779,0.09,0.039-0.926c0.82-1.019,5.174-7.143,7.973-7.864c0.109-0.025,0.189-4.518,0.189-4.518
			l-0.758-5.595l-1.174-1.08l-3.21,2.562l-0.351,3.121l-2.095,2.37l0.133-3.129l-3.015-2.07l-1.559,0.18l-2.655,2.585l-0.407,12.285
			l-1.295,1.812L1083.646,900.444z"/>
		
			<path i:knockout="Off" fill-rule="evenodd" clip-rule="evenodd" fill="#202038" stroke="#676767" stroke-width="2" stroke-miterlimit="3.864" d="
			M553.001,607.893c0,0,18.747,3.602,21.764,4.281s5.205,1.329,6.225,3.393c1.432-1.114,3.583,0.406,3.583,0.406l0.191,2.036
			l-7.225,0.636l1.077,7.286l8.466-3.786l0.443,2.625l-2.838,1.648l1.463,4.688l7.587-2.655l1.211,4.101l-5.929,2.708l2.068,4.81
			l6.193-2.41c0.884,0.189,1.891,1.921-0.499,3.269c-1.544,0.871-0.752,3.029-1.506,4.861l-2.638,0.204l-36.894,31.215l-8.46,49.617
			l26.913,17.015l-29.054,52.138l-29.477,35.879l7.725,7.213l73.014-83.487l5.347,4.524l4.042-3.93l98.542-19.137L715,713.893
			l-1.659-0.053l2.382-3.983l2.814-1.068l4.652,1.312l-7.84,21.789l11.58-5.426l11.102-26.905l4.371,7.974l13.553-6.231
			l-4.851-9.729l4.485-1.305l3.952,4.77c0,0,47.944-20.777,54.124-22.898c6.182-2.12,38.478-12.964,38.478-12.964l4.001,3.611
			l-24.572,18.057l2.618,3.565l16.525-11.065l4.468,5.655l-3.501,4.236l2.367,2.979l12.125-11.79l11.087,12.832l-19.331,18.517
			l3.363,5.62l-3.717,2.779l-3.122-4.741l-41.995,24.159l10.847,11.957c0,0-0.134,3.186-1.842,4.289
			c-1.708,1.105-4.232,1.895-4.232,1.895l-5.919-10.634l-4.823,2.743l3.614,6.207l-1.166,1.414l1.5,3.819l-1.131,0.542
			l-6.915-13.277l-10.763,5.744l5.798,13.532l-2.826,1.355l-5.81-13.238l-26.238,11.617l3.037,6.771L763,770.562l-8.972-10.442
			l-17.944,11.889l13.312,12.616l-7.795,7.577l-17.397-14.197c0,0-12.479,0.465-13.597,0.72c-1.119,0.253-0.866,0.842,1.008,2.353
			c1.875,1.512,20.593,17.202,20.593,17.202l-1.24,3.15l-5.917,2.419l-2.316-4.136l-9.032,4.058l-3.139,2.218l-14.657-13.529
			l-10.242-0.042l-3.176,3.088l14.91,14.116l-6.1,6.765l-14.116-13.221l-4.343,4.5l18.032,18.856l-9.128,6.375l-3.025-7.058
			c0,0-12.699,5.679-16.065,6.73c-3.368,1.051-18.456,4.331-18.456,4.331l-4.114-14.055l8.706-2.909l-3.715-16.944l-19.347,5.754
			l6.126,25.434l-5.111,3.024l-7.773-25.775l-6.396,0.663l-23.14,16.94l3.35,5.91c0,0-0.065,8.12-1.318,11.559
			c-1.253,3.44-2.432,5.142-1.664,6.617c0.769,1.475,0.407,3.492-0.735,4.328c-1.143,0.833-2.598,2.524-2.598,2.524
			s2.114,2.39,0.394,3.784c-1.72,1.395-6.831,4.421-6.831,4.421l-2.741-0.671l-5.522,6.201l2.785,6.183l-4.44,6.817l-1.634-0.633
			l-3.691,2.201l-2.33-3.848l-9.909,5.189l-5.371-3.945l-2.887,2.809l2.041,4.127l-4.367,5.077c0,0-3.847-0.704-5.217-1.037
			c-1.371-0.335-4.09,5.087-4.09,5.087s0.455,2.334-0.724,4.037c-1.18,1.701-12.427,12.359-12.427,12.359l-10.483,18.804l-3.72,9.45
			c0,0,2.317,4.137-0.245,5.792c-2.561,1.658-3.175,3.091-4.135-0.422l-2.704-1.538l-0.497,5.205c0,0,1.741,4.696,3.424,4.171
			c1.684-0.524,0.708,2.923,2.103,2.68c1.394-0.246-2.083,3.412-1.639,6.037c0.443,2.625-0.908,8.382,2.288,11.388
			c3.195,3.004,2.785,6.182,12.21,5.906c3.854-0.113,3.785,2.154,3.785,2.154s1.456-1.695,2.574-1.948
			c3.355-0.761,2.716,1.25,5.469,1.628c2.752,0.379,12.023-2.801,12.023-2.801s5.444,2.209,7.453,0.531
			c0.786-0.652,14.15-0.7,16.988-2.348c2.838-1.648,1.48-2.273,3.705-2.49c2.224-0.219,1.984-1.096,4.22-1.602
			c2.237-0.51,6.937-0.356,8.369-1.471c1.432-1.115,5.437-4.174,7.108-4.411c1.671-0.233,6.009,1.937,8.559,0.569
			c2.549-1.368,2.875-2.518,4.797-2.165c1.924,0.353,8.031-0.029,8.031-0.029s9.958-6.347,13.638-8.258
			c3.68-1.912,9.056-4.638,10.174-4.893c1.118-0.253,10.53-0.237,10.53-0.237l4.798-2.166l10.527,6.433l1.732-1.683l-5.839-5.99
			l4.018-3.352l5-0.418l1.021,2.062l36.188-4.625l-0.468-2.045l18.058-1.445l13.275,13.483l4.81-2.454l-3.96-11.15l12.902-3.932
			l-2.004-4.997l-15.149,4.729l-3.627-5.918l3.403-1.92l6.336,0.785l11.267-4.566c0,0,6.334,0.787,5.566-0.689
			c-0.768-1.475-9.891-21.494-9.891-21.494l3.692-2.199l19.499,36.598l13.613-7.68l-3.626-5.917l0.386-2.6l6.254-3.857l11.975-1.642
			l-0.634-4.66l1.972-0.808L796.61,919l6.433-1.53l1.548,2.661l-5.307,7.66l2.932,2.704l-9.207,14.784l5.455,9.854l16.495-24.805
			l-5.48-21.062l7.624-3.522l1.801,3.25l16.679-8.161l-1.475-4.399c0,0,7.851-2.355,10.412-4.013
			c2.562-1.655,9.995-7.217,9.995-7.217l4.24,4.489l3.139-2.217l1.561,2.369l-4.33,4.209l-1.333-1.203l-6.954,7.316l4.72,6.244
			l7.17-5.858l3.699,4.18l-8.951,8.703l1.31,1.78l-14.411,13.458l5.553,7.533l-34.743,36c-2.886,3.754-3.145,7.71-0.777,11.866
			l32.038,54.41l127.461-48.363l1.711,4.014l14.158-6.107l4.979,13.214l-54.738,23.065l11.41,31.406l72.111-29.276l36.855-46.663
			c0,0,16.193-13.254,18.344-13.514c3.119-0.377,4.521-2.174,4.929,1.32c0.405,3.494-3.917,45.599-3.917,45.599l2.292,4.717
			l2.927-1.238c-4.313,18.728-9.074,37.288-11.49,56.117l-5.504,2.964l593.097,465.221l-1660.071,1.5L2.5,1h558.105L553.001,607.893
			z"/>
	</g>
</svg>
